<?xml version="1.0" encoding="utf-8"?>
<!-- Generator: Adobe Illustrator 22.0.1, SVG Export Plug-In . SVG Version: 6.00 Build 0)  -->
<svg version="1.1" id="Layer_1" xmlns="http://www.w3.org/2000/svg" xmlns:xlink="http://www.w3.org/1999/xlink" x="0px" y="0px"
	 viewBox="0 0 100 125" style="enable-background:new 0 0 100 125;" xml:space="preserve">
<g>
	<path d="M61.3,26.7c-4.7,0-8.4-3.8-8.4-8.4c0-4.7,3.8-8.4,8.4-8.4c4.7,0,8.5,3.8,8.5,8.4C69.8,22.9,66,26.7,61.3,26.7z"/>
	<polygon points="6.6,58 6.6,28.8 0.6,28.8 0.6,92.9 6.6,92.9 6.6,63.9 28.9,63.9 28.9,92.9 34.8,92.9 34.8,58.1 34.8,58 	"/>
	<polygon points="65.2,43.2 11.2,43.2 11.2,49.2 65.2,49.2 	"/>
	<path d="M93.6,28.8V60h-6.4c0-0.2,0.1-0.3,0.1-0.5c4.3-8,3.3-46.1-13.7-39.1c0,0-4.2,1.6-4.3,10.3c0,1,0,21.8,0,22.4H55.4
		c-3.4,0-6.4,2.2-6.4,6.2v28.6c0,2.7,1.6,5,4.3,5c3.1,0,4.7-2.5,4.7-5.2V65.9h5.2v27h5.9v-27h24.5v27h5.9V28.8H93.6z"/>
</g>
</svg>
