<?xml version="1.0" encoding="utf-8"?>
<!-- Generator: Adobe Illustrator 22.0.1, SVG Export Plug-In . SVG Version: 6.00 Build 0)  -->
<svg version="1.1" id="Layer_1" xmlns="http://www.w3.org/2000/svg" xmlns:xlink="http://www.w3.org/1999/xlink" x="0px" y="0px"
	 viewBox="0 0 100 125" style="enable-background:new 0 0 100 125;" xml:space="preserve">
<g>
	<g>
		<path d="M51.2,1.2c-22.4,0-40.7,18.2-40.7,40.7c0,16.9,10.3,31.4,25,37.5v14.5c0,1.9,1.5,3.4,3.4,3.4s3.4-1.5,3.4-3.4V81.5
			c0.9,0.2,1.8,0.4,2.8,0.5v5.2c0,1.9,1.5,3.4,3.4,3.4s3.4-1.5,3.4-3.4v-4.8c0.9,0,1.8-0.1,2.8-0.1v11.5c0,1.9,1.5,3.4,3.4,3.4
			s3.4-1.5,3.4-3.4V81.2c0.6-0.2,1.2-0.3,1.8-0.5v6.5c0,1.9,1.5,3.4,3.4,3.4s3.4-1.5,3.4-3.4V78c13.1-6.8,22.1-20.4,22.1-36.2
			C91.8,19.4,73.6,1.2,51.2,1.2z M45,75.9c-0.9-0.2-1.8-0.4-2.8-0.6v-8.6H45V75.9z M54.5,76.3c-0.9,0.1-1.8,0.1-2.8,0.1v-9.7h2.8
			V76.3z M63,74.4c-0.6,0.2-1.2,0.4-1.8,0.6v-8.2H63V74.4z M69,58.8c0,1.1-0.9,2-2,2H35.8c-1.1,0-2-0.9-2-2v-6.2c0-1.1,0.9-2,2-2H67
			c1.1,0,2,0.9,2,2V58.8z M69.8,71.1v-4.8c3.1-1.1,5.2-4.1,5.2-7.5v-6.2c0-4.4-3.6-8-8-8H35.8c-4.4,0-8,3.6-8,8v6.2
			c0,4.3,3.5,7.9,7.8,8v6c-11.3-5.7-19-17.4-19-30.9c0-19.1,15.6-34.7,34.7-34.7S86,22.8,86,41.9C85.8,54.1,79.4,64.9,69.8,71.1z"/>
		<path d="M38.5,21.5c-5.2,0-9.5,4.3-9.5,9.5s4.3,9.5,9.5,9.5S48,36.2,48,31S43.7,21.5,38.5,21.5z"/>
		<path d="M63.5,20.5c-5.2,0-9.5,4.3-9.5,9.5s4.3,9.5,9.5,9.5S73,35.2,73,30S68.7,20.5,63.5,20.5z"/>
	</g>
</g>
</svg>
