<?xml version="1.0" encoding="utf-8"?>
<!-- Generator: Adobe Illustrator 22.0.1, SVG Export Plug-In . SVG Version: 6.00 Build 0)  -->
<svg version="1.1" id="Layer_1" xmlns="http://www.w3.org/2000/svg" xmlns:xlink="http://www.w3.org/1999/xlink" x="0px" y="0px"
	 viewBox="0 0 100 125" style="enable-background:new 0 0 100 125;" xml:space="preserve">
<style type="text/css">
	.st0{fill:none;stroke:#F27429;stroke-miterlimit:10;}
	.st1{fill:none;stroke:#F06225;stroke-miterlimit:10;}
	.st2{fill:#010101;}
</style>
<path class="st0" d="M50,50"/>
<path class="st0" d="M50,50"/>
<path class="st1" d="M50,50"/>
<path class="st0" d="M50,50"/>
<path class="st0" d="M50,50"/>
<path class="st1" d="M50,50"/>
<path class="st2" d="M79.5,64.8c0.5-0.2,0.9-0.5,1.5-0.8c0.4-0.3,0.8-0.5,1.2-0.8c1,0,2.1,0,3.1,0c0.5-0.5,1-1,1.5-1.6h-2.9
	c0.2-0.2,0.5-0.5,0.7-0.7c0.2-0.3,0.5-0.5,0.7-0.8c0.9,0,1.8,0,2.7,0c1.5-2.3,2.5-5,2.9-7.9c1.3-11.3-7.5-20.9-18.6-20.9H28.6
	c-10.3,0-19.1,8-19.3,18.3c-0.1,3.9,1,7.5,3,10.5h15.2c5.6,0,10.1-4.5,10.1-10.1s-4.5-10.1-10.1-10.1S17.3,44.4,17.3,50
	c0,3.4,1.7,6.5,4.5,8.4c0.1,0.1,0.2,0.1,0.3,0.1h-2.6c-2.4-2.2-3.8-5.3-3.8-8.6c0-6.4,5.2-11.7,11.7-11.7S39.1,43.5,39.1,50
	c0,6.3-5,11.4-11.2,11.7l0,0h-0.5l0,0l0,0H13.3c0.5,0.6,1,1.1,1.5,1.6h12.6c7.3,0,13.3-6,13.3-13.3s-6-13.3-13.3-13.3
	s-13.3,6-13.3,13.3c0,3.1,1.1,6.2,3.1,8.6h-1.9l0,0c-1.8-2.5-2.7-5.5-2.7-8.5c0-8.2,6.7-14.8,14.8-14.8S42.3,41.8,42.3,50
	s-6.6,14.8-14.8,14.8l0,0H16.6c3.1,2.4,7.1,3.8,11.3,3.8c4.3,0,8.2-1.4,11.3-3.8h-4.9c0.5-0.2,0.9-0.5,1.5-0.8
	c0.4-0.3,0.8-0.5,1.2-0.8c1.4,0,2.7,0,4.1,0c0.4-0.4,0.9-0.9,1.2-1.3l0,0l0,0c0.1-0.1,0.1-0.1,0.1-0.2l0.1-0.1h-3.6
	c0.2-0.2,0.5-0.5,0.7-0.7c0.2-0.3,0.5-0.5,0.7-0.8c1.1,0,2.3,0,3.4,0l0.3-0.3c1.2-1.5,2.9-2.3,4.8-2.3H51c1.8,0,3.5,0.8,4.6,2.1
	l0.5,0.5c2.8,0,5.5,0,8.3,0l0,0h7.8c0.4,0,0.8,0,1.2-0.1c5.1-0.6,9-4.9,9-10.1c0-5.6-4.5-10.1-10.1-10.1S62.1,44.4,62.1,50
	c0,3.4,1.7,6.6,4.6,8.5c0.1,0,0.1,0.1,0.2,0.1c0.1,0.1,0,0,0,0h-2.5c-2.4-2.2-3.8-5.3-3.8-8.6c0-6.4,5.2-11.7,11.7-11.7
	C78.7,38.3,84,43.5,84,50c0,5.9-4.4,10.9-10.3,11.6c-0.3,0-0.6,0-1,0.1l0,0H57.5l0.2,0.3l0,0c0.4,0.5,0.8,0.9,1.3,1.3
	c1.1,0,2.2,0,3.3,0l0,0h9.9l0,0c0.5,0,1,0,1.5-0.1c6.7-0.7,11.8-6.4,11.8-13.2c0-7.3-6-13.3-13.3-13.3s-13.3,6-13.3,13.3
	c0,3.2,1.1,6.2,3.1,8.6h-2c-1.8-2.5-2.7-5.5-2.7-8.6c0-8.2,6.7-14.8,14.8-14.8S87,41.8,87,50c0,7.6-5.7,13.9-13.2,14.8
	c-0.5,0.1-1.1,0.1-1.6,0.1l0,0H60.8c3.9,3,8.9,4.5,14.3,3.6c3.1-0.5,5.9-1.8,8.3-3.6L79.5,64.8L79.5,64.8z M21.7,52.3
	c-1.5,0-1.9-0.6-2-2.3c0-1.4,0.5-2.1,2-2.1c1.1,0,2.2,0,3.6,0c0-1.4,0-2.6,0-3.8c0-1.3,0.7-1.8,2-1.8s2.3,0.2,2.4,1.7
	c0.1,1.2,0,2.4,0,3.9c1.3,0,2.5,0,3.6,0c1.4,0,1.9,0.8,1.9,2c0,1.3-0.3,2.3-1.8,2.3c-1.2,0-2.3,0-3.7,0c0,1.3,0,2.4,0,3.6
	c0,1.5-0.9,1.9-2.2,1.9c-1.6,0-2.1-0.5-2.1-1.9c0-1.1,0-2.2,0-3.6C24,52.3,22.9,52.3,21.7,52.3z M72.5,57.7c-1.4,0-2.5-1.2-2.6-2.6
	c0.1-1.4,1.2-2.5,2.7-2.5s2.5,1.1,2.5,2.5C75.1,56.6,73.9,57.8,72.5,57.7z M77.7,47.4c1.4,0,2.6,1.2,2.6,2.7c0,1.4-1.2,2.5-2.6,2.5
	s-2.6-1.1-2.5-2.6C75.1,48.6,76.3,47.4,77.7,47.4z M72.6,42.3c1.5,0,2.5,1.1,2.5,2.5c0,1.5-1.2,2.7-2.6,2.6c-1.4,0-2.5-1.2-2.6-2.6
	C70,43.4,71.1,42.3,72.6,42.3z M64.9,50c0-1.5,1.2-2.7,2.6-2.6c1.4,0,2.5,1.2,2.6,2.6c0,1.4-1.2,2.6-2.6,2.6
	C65.9,52.5,64.9,51.5,64.9,50z"/>
</svg>
