<?xml version="1.0" encoding="utf-8"?>
<!-- Generator: Adobe Illustrator 22.0.1, SVG Export Plug-In . SVG Version: 6.00 Build 0)  -->
<svg version="1.1" id="Layer_1" xmlns="http://www.w3.org/2000/svg" xmlns:xlink="http://www.w3.org/1999/xlink" x="0px" y="0px"
	 viewBox="0 0 96 120" style="enable-background:new 0 0 96 120;" xml:space="preserve">
<path d="M36,49.7c0.4,0.4,4.5,2.3,12,2.3c7.6,0,11.6-1.9,12-2.7c-0.4-0.4-4.5-2.3-12-2.3C40.4,47,36.4,48.9,36,49.7z"/>
<path d="M48,3C31.1,3,22,16.4,22,29v24c0,5,8.7,26,26,26s26-21,26-26V29C74,16.4,64.9,3,48,3z M58,29c2.2,0,4,1.8,4,4s-1.8,4-4,4
	s-4-1.8-4-4S55.8,29,58,29z M38,29c2.2,0,4,1.8,4,4s-1.8,4-4,4s-4-1.8-4-4S35.8,29,38,29z M48,56c-8,0-16-2-16-6.5S40,43,48,43
	s16,2,16,6.5S56,56,48,56z"/>
<path d="M73.8,65.3C69.1,73.9,60.3,83,48,83s-21.1-9.1-25.8-17.7C11,67.1,4,76.8,4,91c0,1.1,0.9,2,2,2h84c1.1,0,2-0.9,2-2
	C92,76.8,85,67.1,73.8,65.3z"/>
</svg>
