<?xml version="1.0" encoding="utf-8"?>
<!-- Generator: Adobe Illustrator 22.0.1, SVG Export Plug-In . SVG Version: 6.00 Build 0)  -->
<svg version="1.1" id="Layer_1" xmlns="http://www.w3.org/2000/svg" xmlns:xlink="http://www.w3.org/1999/xlink" x="0px" y="0px"
	 viewBox="0 0 100 125" style="enable-background:new 0 0 100 125;" xml:space="preserve">
<style type="text/css">
	.st0{display:none;}
	.st1{display:inline;stroke:#000000;stroke-width:4;stroke-miterlimit:10;}
	.st2{fill:none;}
</style>
<g class="st0">
	<rect x="-723.1" y="-257.5" class="st1" width="1220.1" height="751.6"/>
</g>
<g>
	<path class="st2" d="M40.9,40.1c0-4.1-3.3-7.4-7.4-7.4s-7.4,3.3-7.4,7.4s3.3,7.4,7.4,7.4S40.9,44.2,40.9,40.1z"/>
	<path class="st2" d="M41.2,56.3c-0.7-2.3-2.8-3.9-5.3-3.9h-4.8c-3,0-5.5,2.5-5.5,5.5v24.5c3.7,2.8,7.9,5,12.5,6.4V76.3
		c0-2.6,1.2-4.9,3.1-6.5c-1.7-1.8-2.8-4.2-2.8-6.8C38.5,60.4,39.5,58,41.2,56.3z"/>
	<path class="st2" d="M50.9,72.4c-0.8,0.2-4.5,0.2-5.3,0c-0.3,0.1-0.7,0.2-1,0.3c-1.3,0.7-2.2,2-2.2,3.5v13.6c2.5,0.5,5,0.7,7.6,0.7
		c1.4,0,2.8-0.1,4.1-0.2V76.3C54.1,74.4,52.7,72.8,50.9,72.4z"/>
	<path class="st2" d="M65.9,43.8h-5.7c-3.8,0-6.9,3.1-6.9,6.9v3.9c2.9,1.7,4.8,4.8,4.8,8.4c0,2.6-1,5-2.7,6.8
		c1.9,1.5,3.1,3.9,3.1,6.5v13.5c5.2-1.1,10.1-3.2,14.3-6.1V50.7C72.8,46.9,69.7,43.8,65.9,43.8z"/>
	<path class="st2" d="M48.3,68.4c3,0,5.4-2.4,5.4-5.4c0-3-2.4-5.4-5.4-5.4S42.8,60,42.8,63C42.8,66,45.3,68.4,48.3,68.4z"/>
	<path class="st2" d="M72.2,29.9c0-5.1-4.1-9.2-9.2-9.2s-9.2,4.1-9.2,9.2S58,39,63,39S72.2,34.9,72.2,29.9z"/>
	<path class="st2" d="M21.2,57.9c0-3.7,2-6.9,5-8.6c-2.7-2.2-4.5-5.5-4.5-9.2c0-6.5,5.3-11.8,11.8-11.8s11.8,5.3,11.8,11.8
		c0,3.7-1.8,7.1-4.5,9.2c1.8,1,3.2,2.6,4.1,4.5c1.1-0.4,2.2-0.6,3.4-0.6c0.2,0,0.4,0,0.6,0v-2.5c0-4.3,2.5-8.1,6.1-10
		c-3.3-2.5-5.5-6.4-5.5-10.8c0-7.5,6.1-13.5,13.5-13.5s13.5,6.1,13.5,13.5c0,4.4-2.2,8.4-5.5,10.8c3.6,1.9,6.1,5.6,6.1,10v29.5
		C85.4,72.7,90.6,62,90.6,50C90.6,27.6,72.4,9.4,50,9.4C27.6,9.4,9.4,27.6,9.4,50c0,11.1,4.5,21.3,11.8,28.6V57.9z"/>
	<path d="M50,95c24.8,0,45-20.2,45-45S74.8,5,50,5C25.2,5,5,25.2,5,50S25.2,95,50,95z M38.1,76.3v12.6c-4.6-1.4-8.8-3.6-12.5-6.4
		V57.9c0-3,2.5-5.5,5.5-5.5h4.8c2.4,0,4.5,1.6,5.3,3.9c-1.7,1.8-2.7,4.1-2.7,6.8c0,2.6,1.1,5,2.8,6.8C39.2,71.4,38.1,73.7,38.1,76.3
		z M26.1,40.1c0-4.1,3.3-7.4,7.4-7.4s7.4,3.3,7.4,7.4s-3.3,7.4-7.4,7.4S26.1,44.2,26.1,40.1z M54.1,90.4c-1.3,0.1-2.7,0.2-4.1,0.2
		c-2.6,0-5.1-0.3-7.6-0.7V76.3c0-1.5,0.8-2.8,2.2-3.5c0.3-0.2,0.7-0.3,1-0.3c0.8,0.2,4.5,0.2,5.3,0c1.8,0.3,3.2,2,3.2,3.8L54.1,90.4
		L54.1,90.4z M42.8,63c0-3,2.4-5.4,5.4-5.4s5.4,2.4,5.4,5.4s-2.4,5.4-5.4,5.4C45.3,68.4,42.8,66,42.8,63z M72.8,83.6
		c-4.3,2.9-9.1,5-14.3,6.1V76.3c0-2.6-1.2-4.9-3.1-6.5c1.7-1.8,2.7-4.2,2.7-6.8c0-3.6-1.9-6.7-4.8-8.4v-3.9c0-3.8,3.1-6.9,6.9-6.9
		h5.7c3.8,0,6.9,3.1,6.9,6.9V83.6z M53.9,29.9c0-5.1,4.1-9.2,9.2-9.2s9.2,4.1,9.2,9.2S68.1,39,63,39S53.9,34.9,53.9,29.9z M50,9.4
		c22.4,0,40.6,18.2,40.6,40.6c0,12-5.2,22.7-13.5,30.2V50.7c0-4.3-2.5-8.1-6.1-10c3.3-2.5,5.5-6.4,5.5-10.8
		c0-7.5-6.1-13.5-13.5-13.5s-13.5,6.1-13.5,13.5c0,4.4,2.2,8.4,5.5,10.8c-3.6,1.9-6.1,5.6-6.1,10v2.5c-0.2,0-0.4,0-0.6,0
		c-1.2,0-2.3,0.2-3.4,0.6c-0.9-1.9-2.3-3.5-4.1-4.5c2.7-2.2,4.5-5.5,4.5-9.2c0-6.5-5.3-11.8-11.8-11.8s-11.8,5.3-11.8,11.8
		c0,3.7,1.8,7.1,4.5,9.2c-3,1.7-5,4.9-5,8.6v20.7C13.9,71.3,9.4,61.1,9.4,50C9.4,27.6,27.6,9.4,50,9.4z"/>
</g>
</svg>
