<?xml version="1.0" encoding="utf-8"?>
<!-- Generator: Adobe Illustrator 22.0.1, SVG Export Plug-In . SVG Version: 6.00 Build 0)  -->
<svg version="1.1" id="Layer_1" xmlns="http://www.w3.org/2000/svg" xmlns:xlink="http://www.w3.org/1999/xlink" x="0px" y="0px"
	 viewBox="0 0 100 125" style="enable-background:new 0 0 100 125;" xml:space="preserve">
<g>
	<path d="M50,5C25.2,5,5,25.2,5,50c0,24.8,20.2,45,45,45s45-20.2,45-45C95,25.2,74.8,5,50,5z M50,88.9c-21.5,0-38.9-17.5-38.9-38.9
		S28.5,11.1,50,11.1S88.9,28.5,88.9,50S71.5,88.9,50,88.9z"/>
	<path d="M51.1,47.6c-7.1-1.4-10.4-2.4-10.4-6c0-2.6,1.1-4.3,3.4-5.5c4-1.9,10.6-1.2,14.1,1.6c1.3,1,3.2,0.8,4.3-0.5
		c1-1.3,0.8-3.2-0.5-4.3c-2.4-1.9-5.6-3.1-8.9-3.7v-5.4c0-1.7-1.4-3-3-3s-3,1.4-3,3v5.2c-2,0.2-3.9,0.7-5.6,1.5
		c-4.4,2.1-6.8,6-6.8,10.9c0,8.9,8.9,10.7,15.3,11.9c7,1.4,9.5,2.3,9.5,4.9c0,2.5-1.1,4.3-3.2,5.4c-3.8,2-10.2,1.4-13.9-1.3
		c-1.4-1-3.3-0.6-4.2,0.7c-1,1.4-0.6,3.3,0.7,4.2c2.3,1.6,5.2,2.7,8.3,3.2v7.3c0,1.7,1.4,3,3,3s3-1.4,3-3v-7.2
		c2.1-0.2,4.2-0.7,5.9-1.6c4.2-2.2,6.5-6,6.5-10.8C65.4,50.4,57.5,48.8,51.1,47.6z"/>
</g>
</svg>
