<?xml version="1.0" encoding="utf-8"?>
<!-- Generator: Adobe Illustrator 22.0.1, SVG Export Plug-In . SVG Version: 6.00 Build 0)  -->
<svg version="1.1" id="Layer_1" xmlns="http://www.w3.org/2000/svg" xmlns:xlink="http://www.w3.org/1999/xlink" x="0px" y="0px"
	 viewBox="0 0 1024 1280" style="enable-background:new 0 0 1024 1280;" xml:space="preserve">
<g>
	<g>
		<g>
			<path d="M435.7,422.9c0-5.1,0.4-10.2,1-15.2c-0.5,3.5-1,7.1-1.4,10.6c1.4-10.2,4.1-20.2,8-29.7c-1.3,3.2-2.7,6.4-4,9.6
				c4-9.3,9-18,15.2-26c-2.1,2.7-4.2,5.4-6.3,8.1c6.2-7.9,13.2-15,21.2-21.2c-2.7,2.1-5.4,4.2-8.1,6.3c8-6.1,16.7-11.2,26-15.2
				c-3.2,1.3-6.4,2.7-9.6,4c9.6-3.9,19.5-6.6,29.7-8c-3.5,0.5-7.1,1-10.6,1.4c10.1-1.3,20.3-1.3,30.4,0c-3.5-0.5-7.1-1-10.6-1.4
				c10.2,1.4,20.2,4.1,29.7,8c-3.2-1.3-6.4-2.7-9.6-4c9.3,4,18,9,26,15.2c-2.7-2.1-5.4-4.2-8.1-6.3c7.9,6.2,15,13.2,21.2,21.2
				c-2.1-2.7-4.2-5.4-6.3-8.1c6.1,8,11.2,16.7,15.2,26c-1.3-3.2-2.7-6.4-4-9.6c3.9,9.6,6.6,19.5,8,29.7c-0.5-3.5-1-7.1-1.4-10.6
				c1.3,10.2,1.3,20.4,0,30.6c0.5-3.5,1-7.1,1.4-10.6c-1.4,10.4-4.2,20.5-8.2,30.1c1.3-3.2,2.7-6.4,4-9.6c-3.9,9-8.8,17.3-14.7,25.1
				c2.1-2.7,4.2-5.4,6.3-8.1c-6.2,8-13.4,15.2-21.4,21.5c2.7-2.1,5.4-4.2,8.1-6.3c-4.7,3.6-9.7,6.6-14.8,9.7
				c-7.5,4.5-14.4,10-21.2,15.4c-11.5,9.3-21,20.9-29.2,33.1c-16.9,24.8-25.4,55.7-25.6,85.5c-0.1,20.9,18.5,41,40,40
				c21.8-1,39.9-17.6,40-40c0-5.1,0.4-10.3,1-15.4c-0.5,3.5-1,7.1-1.4,10.6c1.4-10.4,4.2-20.5,8.2-30.1c-1.3,3.2-2.7,6.4-4,9.6
				c3.9-9,8.8-17.3,14.7-25.1c-2.1,2.7-4.2,5.4-6.3,8.1c6.2-8,13.4-15.2,21.4-21.5c-2.7,2.1-5.4,4.2-8.1,6.3
				c7.4-5.7,15.8-9.9,23.3-15.4c9.6-7,18.9-14.4,26.8-23.3c16.1-18.3,28.3-39.4,34.9-62.9c11.8-41.9,5.2-90-18.9-126.5
				c-22.8-34.5-59.1-61.4-100.4-68.8c-23.5-4.2-46.5-4.2-69.8,1.5c-18.8,4.6-37.2,13.2-52.7,24.8c-19.4,14.7-36.3,32.4-47.3,54.3
				c-11.4,22.6-17.6,46.9-17.8,72.3c-0.1,20.9,18.5,41,40,40C417.5,462,435.6,445.4,435.7,422.9L435.7,422.9z"/>
		</g>
	</g>
	<g>
		<g>
			<path d="M552,751c0-1.7,0-3.3,0-5c0.2-5.5-0.9-10.6-3.4-15.4c-1.6-5-4.4-9.3-8.3-12.9c-3.6-3.9-7.9-6.7-12.9-8.3
				c-4.8-2.5-9.9-3.7-15.4-3.4c-3.5,0.5-7.1,1-10.6,1.4c-6.8,1.9-12.7,5.3-17.7,10.3c-2.1,2.7-4.2,5.4-6.3,8.1
				c-3.6,6.2-5.4,13-5.5,20.2c0,1.7,0,3.3,0,5c-0.2,5.5,0.9,10.6,3.4,15.4c1.6,5,4.4,9.3,8.3,12.9c3.6,3.9,7.9,6.7,12.9,8.3
				c4.8,2.5,9.9,3.7,15.4,3.4c3.5-0.5,7.1-1,10.6-1.4c6.8-1.9,12.7-5.3,17.7-10.3c2.1-2.7,4.2-5.4,6.3-8.1
				C550.2,764.9,552,758.2,552,751L552,751z"/>
		</g>
	</g>
	<g>
		<g>
			<path d="M760.9,263.1c12.1,12.1,23.3,24.9,33.8,38.4c-2.1-2.7-4.2-5.4-6.3-8.1c20.4,26.7,37.4,55.8,50.5,86.7
				c-1.3-3.2-2.7-6.4-4-9.6c13.4,32,22.5,65.6,27.1,99.9c-0.5-3.5-1-7.1-1.4-10.6c4.5,34.6,4.5,69.6,0,104.2c0.5-3.5,1-7.1,1.4-10.6
				c-4.6,34.3-13.7,67.9-27.1,99.9c1.3-3.2,2.7-6.4,4-9.6c-13.1,30.9-30,60.1-50.5,86.7c2.1-2.7,4.2-5.4,6.3-8.1
				c-20.9,27-45.2,51.3-72.2,72.2c2.7-2.1,5.4-4.2,8.1-6.3c-26.7,20.4-55.8,37.4-86.7,50.5c3.2-1.3,6.4-2.7,9.6-4
				c-32,13.4-65.6,22.5-99.9,27.1c3.5-0.5,7.1-1,10.6-1.4c-34.6,4.5-69.6,4.5-104.2,0c3.5,0.5,7.1,1,10.6,1.4
				c-34.3-4.6-67.9-13.7-99.9-27.1c3.2,1.3,6.4,2.7,9.6,4c-30.9-13.1-60.1-30-86.7-50.5c2.7,2.1,5.4,4.2,8.1,6.3
				c-27-20.9-51.3-45.2-72.2-72.2c2.1,2.7,4.2,5.4,6.3,8.1c-20.4-26.7-37.4-55.8-50.5-86.7c1.3,3.2,2.7,6.4,4,9.6
				c-13.4-32-22.5-65.6-27.1-99.9c0.5,3.5,1,7.1,1.4,10.6c-4.5-34.6-4.5-69.6,0-104.2c-0.5,3.5-1,7.1-1.4,10.6
				c4.6-34.3,13.7-67.9,27.1-99.9c-1.3,3.2-2.7,6.4-4,9.6c13.1-30.9,30-60.1,50.5-86.7c-2.1,2.7-4.2,5.4-6.3,8.1
				c20.9-27,45.2-51.3,72.2-72.2c-2.7,2.1-5.4,4.2-8.1,6.3c26.7-20.4,55.8-37.4,86.7-50.5c-3.2,1.3-6.4,2.7-9.6,4
				c32-13.4,65.6-22.5,99.9-27.1c-3.5,0.5-7.1,1-10.6,1.4c34.6-4.5,69.6-4.5,104.2,0c-3.5-0.5-7.1-1-10.6-1.4
				c34.3,4.6,67.9,13.7,99.9,27.1c-3.2-1.3-6.4-2.7-9.6-4c30.9,13.1,60.1,30,86.7,50.5c-2.7-2.1-5.4-4.2-8.1-6.3
				C736,239.8,748.8,251,760.9,263.1c14.8,14.8,41.9,15.9,56.6,0c14.6-15.9,15.8-40.8,0-56.6C755.3,144.6,673.8,101.1,587,86.7
				c-42.2-7-84.6-8.8-127.1-3.3c-23.2,3-46.1,7.1-68.6,13.7c-22,6.4-43.5,14.9-64.3,24.5c-80.3,37.2-148.8,101.9-191.9,179
				c-42,75.2-61.7,163.9-53.2,249.8c4.4,44.7,14.7,87.6,32.1,129c17.8,42.2,41.7,80.5,71.6,115.4c57.3,67,136.8,115.6,222.4,136.5
				c83.3,20.3,173.4,16.3,253.8-14.2c21.6-8.2,42.7-17.6,62.8-29c20.7-11.7,39.9-25.4,58.5-40.1c35.3-27.9,65.5-62,90.3-99.3
				c47.7-71.8,72.5-159.5,70.5-245.7c-2-86.5-29.8-173.2-81.2-243.1c-13.9-18.8-28.7-36.9-45.2-53.4c-14.8-14.8-42-15.9-56.6,0
				C746.2,222.5,745.1,247.3,760.9,263.1z"/>
		</g>
	</g>
</g>
</svg>
