<?xml version="1.0" encoding="utf-8"?>
<!-- Generator: Adobe Illustrator 22.0.1, SVG Export Plug-In . SVG Version: 6.00 Build 0)  -->
<svg version="1.1" id="Layer_1" xmlns="http://www.w3.org/2000/svg" xmlns:xlink="http://www.w3.org/1999/xlink" x="0px" y="0px"
	 viewBox="0 0 64 80" style="enable-background:new 0 0 64 80;" xml:space="preserve">
<g>
	<path d="M15.2,21.4L13.6,22c-1.5,0.6-2.7,1.5-3.5,2.8l-0.3,0.5c-1.4,2.2-5.8,9.2-6.9,11c-0.4,0.6-0.2,1.4,0.4,1.7s1.4,0.2,1.7-0.4
		c1.1-1.8,5.5-8.8,6.9-11l0.3-0.5c0.6-0.9,1.3-1.5,2.3-1.9l1.6-0.6c3.3-1.2,6.7-2.5,10-3.8c1.1-0.4,2.2-0.7,3.6-0.8
		c0.6,0,1.2,0.2,1.8,0.8c2.2,2,1.3,5.8,0.6,9.2c-0.2,0.8-0.3,1.5-0.4,2.2l-0.9,5.5l3.2,0.5c2.1,0.3,4.1,0.7,6.2,1
		c2,0.3,3.5,1.4,4.6,3.1c0.8,1.3,1.5,2.6,2.2,3.8l0.7,1.2c0.9,1.6,1.8,3.2,2.7,4.8l1.9,3.4l1.1-0.7c0.6-0.4,1.2-0.8,1.9-1.1
		c0.6-0.4,1.2-0.5,1.8-0.4c0.4,0.1,0.7,0.3,0.9,0.6l0.1,0.2c0.1,0.2,0.3,0.4,0.4,0.6c0.7,0.9,0.2,1.7-0.2,2.2
		c-0.2,0.2-0.4,0.4-0.6,0.5c-1.6,1-3.4,2.1-5.6,3.5c-0.7,0.4-1.2,0.6-1.7,0.4c-1-0.3-1.9-1.8-2.6-3l-3.6-6.4
		c-1.1-1.9-2.1-3.8-3.2-5.6l-0.3-0.5L39.9,45c-0.5-0.1-1-0.1-1.5-0.2c-0.8-0.1-1.6-0.2-2.3-0.3c-2-0.3-4-0.6-6.3-1l-0.6-0.1
		c-1.9-0.3-3.8-0.6-5.7-1c-1-0.2-1.9-0.8-2.5-1.6c-0.3-0.4-0.6-1.1-0.6-1.6V39c0-0.3,0-0.7,0.1-1c0.5-3.2,1-6.7,1.6-10.1
		c0.1-0.7-0.3-1.3-1-1.4s-1.3,0.3-1.4,1c-0.6,3.5-1.1,7-1.6,10.2C18,38.2,18,38.7,18,39v0.2c-0.1,1.6,0.8,2.9,1.1,3.2
		c1,1.3,2.4,2.2,4,2.5c1.9,0.4,3.9,0.7,5.7,1.1l0.6,0.1c2.3,0.4,4.3,0.7,6.3,1c0.8,0.1,1.6,0.2,2.4,0.3c0.3,0,0.6,0.1,0.8,0.1
		c1,1.7,1.9,3.4,2.9,5.1l0.2,0.3c3.4,5.9,3.5,6.1,3.5,6.1l0,0c0.9,1.5,2.1,3.7,4.1,4.2c0.3,0.1,0.6,0.1,0.9,0.1
		c0.9,0,1.8-0.3,2.7-0.8c2.3-1.4,4-2.5,5.7-3.5c0.5-0.3,0.9-0.6,1.2-1c1.5-1.7,1.6-3.7,0.4-5.4c-0.1-0.1-0.2-0.2-0.2-0.4L60.2,52
		c-0.6-0.9-1.4-1.5-2.5-1.8c-1.2-0.3-2.4,0-3.6,0.7c-0.3,0.2-0.5,0.3-0.8,0.5l-0.7-1.2c-0.9-1.6-1.8-3.2-2.7-4.8l-0.7-1.2
		c-0.7-1.3-1.5-2.6-2.2-3.9c-1.4-2.4-3.6-3.8-6.3-4.3c-2.1-0.4-4.1-0.7-6.2-1l-0.7-0.1l0.5-3c0.1-0.6,0.3-1.4,0.4-2.1
		c0.8-3.8,1.8-8.6-1.4-11.6c-1.1-1-2.4-1.5-3.7-1.4c-1.7,0.1-3.1,0.4-4.4,0.9C21.9,18.9,18.5,20.2,15.2,21.4z"/>
	<path d="M34.9,15c4.1,0,7.4-3.3,7.4-7.4S39,0.2,34.9,0.2s-7.4,3.3-7.4,7.4C27.5,11.7,30.8,15,34.9,15z M34.9,2.8
		c2.7,0,4.9,2.2,4.9,4.9s-2.2,4.9-4.9,4.9S30,10.3,30,7.7C30,5,32.2,2.8,34.9,2.8z"/>
	<path d="M14.8,37.4c0.6-0.3,0.9-1.1,0.5-1.7c-0.3-0.6-1.1-0.9-1.7-0.5c-3.8,2-6.6,5.5-7.7,9.7c-1,3.9-0.4,8,1.7,11.4
		c2.1,3.5,5.3,5.9,9.2,6.9c1.2,0.3,2.5,0.5,3.7,0.5c2.7,0,5.3-0.7,7.7-2.1c3.5-2.1,5.9-5.3,6.9-9.2c0.2-0.7-0.2-1.3-0.9-1.5
		s-1.3,0.2-1.5,0.9c-1.7,6.7-8.6,10.8-15.3,9.1c-3.3-0.8-6-2.9-7.7-5.8s-2.2-6.3-1.4-9.5C9.2,42,11.6,39.1,14.8,37.4z"/>
</g>
</svg>
