<svg xmlns="http://www.w3.org/2000/svg" xmlns:xlink="http://www.w3.org/1999/xlink" version="1.1" x="0px" y="0px" viewBox="0 0 100 100" enable-background="new 0 0 100 100" xml:space="preserve"><path d="M81.831,32.977c4.854,0,9.175-2.908,11.009-7.41c0.119-0.296,0.051-0.635-0.175-0.86s-0.565-0.295-0.859-0.174  c-1.242,0.506-2.546,0.762-3.877,0.762c-5.68,0-10.3-4.621-10.3-10.301c0-1.332,0.256-2.636,0.761-3.877  c0.12-0.295,0.052-0.634-0.174-0.859s-0.565-0.294-0.86-0.174c-4.502,1.832-7.41,6.153-7.41,11.008  C69.945,27.645,75.277,32.977,81.831,32.977z M76.334,12.383c-0.193,0.854-0.292,1.728-0.292,2.61  c0,6.555,5.332,11.887,11.887,11.887c0.883,0,1.756-0.098,2.609-0.291c-1.862,2.965-5.116,4.802-8.707,4.802  c-5.68,0-10.3-4.62-10.3-10.3C71.531,17.5,73.368,14.246,76.334,12.383z M67.207,37.44c0-0.438,0.356-0.794,0.794-0.794h0.774  v-0.774c0-0.438,0.355-0.794,0.793-0.794c0.438,0,0.793,0.355,0.793,0.794v0.774h0.776c0.438,0,0.793,0.355,0.793,0.794  c0,0.438-0.355,0.792-0.793,0.792h-0.776v0.775c0,0.438-0.354,0.793-0.793,0.793c-0.438,0-0.793-0.354-0.793-0.793v-0.775h-0.774  C67.563,38.232,67.207,37.878,67.207,37.44z M55.78,53.097c0,0.437-0.355,0.793-0.794,0.793h-0.775v0.774  c0,0.438-0.354,0.794-0.793,0.794c-0.438,0-0.794-0.356-0.794-0.794V53.89H51.85c-0.437,0-0.792-0.356-0.792-0.793  c0-0.438,0.355-0.794,0.792-0.794h0.774v-0.775c0-0.438,0.356-0.793,0.794-0.793c0.438,0,0.793,0.355,0.793,0.793v0.775h0.775  C55.425,52.303,55.78,52.658,55.78,53.097z M60.233,17.855c0-0.438,0.355-0.793,0.794-0.793h0.774v-0.775  c0-0.438,0.354-0.794,0.794-0.794c0.438,0,0.793,0.356,0.793,0.794v0.775h0.775c0.438,0,0.793,0.355,0.793,0.793  c0,0.438-0.354,0.794-0.793,0.794h-0.775v0.774c0,0.438-0.355,0.793-0.793,0.793c-0.439,0-0.794-0.355-0.794-0.793v-0.774h-0.774  C60.589,18.649,60.233,18.294,60.233,17.855z M86.494,15.377c0-0.438,0.354-0.794,0.793-0.794h0.774v-0.774  c0-0.438,0.355-0.794,0.793-0.794c0.438,0,0.794,0.355,0.794,0.794v0.774h0.775c0.438,0,0.793,0.355,0.793,0.794  c0,0.438-0.354,0.793-0.793,0.793h-0.775v0.774c0,0.438-0.355,0.794-0.794,0.794c-0.438,0-0.793-0.355-0.793-0.794V16.17h-0.774  C86.849,16.17,86.494,15.814,86.494,15.377z M66.285,76.517c0,0.438-0.355,0.793-0.794,0.793H41.345  c-0.438,0-0.793-0.355-0.793-0.793c0-0.438,0.355-0.793,0.793-0.793h24.146C65.93,75.724,66.285,76.078,66.285,76.517z   M54.921,62.826h-31.02c-0.438,0-0.794-0.355-0.794-0.793c0-0.438,0.355-0.793,0.794-0.793h31.02c0.438,0,0.794,0.354,0.794,0.793  C55.715,62.471,55.358,62.826,54.921,62.826z M59.588,69.274c0,0.438-0.354,0.793-0.793,0.793H28.261h-0.486h-1.54  c-0.438,0-0.793-0.354-0.793-0.793c0-0.438,0.354-0.792,0.793-0.792h1.54h0.486h30.534C59.233,68.482,59.588,68.837,59.588,69.274z   M30.779,64.86h36.307c0.438,0,0.793,0.355,0.793,0.793c0,0.438-0.354,0.794-0.793,0.794H30.779c-0.438,0-0.794-0.355-0.794-0.794  C29.985,65.216,30.341,64.86,30.779,64.86z M44.606,83.759c0,0.438-0.355,0.793-0.793,0.793h-4.229  c-0.438,0-0.794-0.355-0.794-0.793c0-0.438,0.355-0.794,0.794-0.794h4.229C44.251,82.965,44.606,83.32,44.606,83.759z M59.736,61.24  c1.023,0,1.023,1.586,0,1.586S58.713,61.24,59.736,61.24z M63.703,27.804c1.022,0,1.022,1.586,0,1.586S62.681,27.804,63.703,27.804z   M66.033,6.127c1.022,0,1.022,1.586,0,1.586C65.01,7.713,65.01,6.127,66.033,6.127z M54.921,40.636c1.021,0,1.021,1.586,0,1.586  C53.897,42.222,53.897,40.636,54.921,40.636z M52.645,7.539c1.022,0,1.022,1.587,0,1.587C51.621,9.126,51.621,7.539,52.645,7.539z   M63.703,61.24c1.022,0,1.022,1.586,0,1.586S62.681,61.24,63.703,61.24z M21.034,62.826c-1.022,0-1.022-1.586,0-1.586  C22.058,61.24,22.058,62.826,21.034,62.826z M17.597,62.826c-1.022,0-1.022-1.586,0-1.586C18.62,61.24,18.62,62.826,17.597,62.826z   M38.221,77.31c-1.023,0-1.023-1.586,0-1.586C39.243,75.724,39.243,77.31,38.221,77.31z M34.783,77.31c-1.022,0-1.022-1.586,0-1.586  C35.807,75.724,35.807,77.31,34.783,77.31z M45.095,90.576c1.023,0,1.023,1.586,0,1.586C44.072,92.162,44.072,90.576,45.095,90.576z   M48.004,90.576c1.022,0,1.022,1.586,0,1.586C46.98,92.162,46.98,90.576,48.004,90.576z M55.447,80.932  c-1.022,0-1.022-1.587,0-1.587C56.471,79.345,56.471,80.932,55.447,80.932z M47.097,84.552c-1.023,0-1.023-1.587,0-1.587  C48.119,82.965,48.119,84.552,47.097,84.552z M35.707,84.552c-1.022,0-1.022-1.587,0-1.587C36.73,82.965,36.73,84.552,35.707,84.552  z M58.885,80.932c-1.022,0-1.022-1.587,0-1.587S59.907,80.932,58.885,80.932z M66.033,70.089c-1.023,0-1.023-1.587,0-1.587  C67.056,68.502,67.056,70.089,66.033,70.089z M62.596,70.089c-1.023,0-1.023-1.587,0-1.587  C63.618,68.502,63.618,70.089,62.596,70.089z M39.056,40.461l2.501,5.873c0.172,0.403-0.016,0.869-0.419,1.041  c-0.102,0.043-0.207,0.063-0.311,0.063c-0.308,0-0.602-0.181-0.729-0.482l-2.501-5.873c-0.172-0.403,0.016-0.869,0.419-1.04  C38.419,39.87,38.884,40.059,39.056,40.461z M22.723,37.389c0.31,0.31,0.308,0.812-0.003,1.121l-2.224,2.211  c-0.154,0.154-0.357,0.231-0.56,0.231c-0.203,0-0.406-0.078-0.562-0.234c-0.31-0.311-0.308-0.812,0.003-1.121l2.224-2.212  C21.911,37.076,22.414,37.077,22.723,37.389z M32.67,15.606c-6.554,0-11.886,5.332-11.886,11.887  c0,6.554,5.332,11.886,11.886,11.886s11.886-5.332,11.886-11.886C44.556,20.938,39.224,15.606,32.67,15.606z M32.67,37.792  c-5.679,0-10.3-4.621-10.3-10.299c0-5.68,4.621-10.3,10.3-10.3c5.68,0,10.3,4.62,10.3,10.3C42.97,33.171,38.35,37.792,32.67,37.792z   M27.575,40.146c0.406,0.163,0.603,0.626,0.439,1.032L25.631,47.1c-0.125,0.31-0.422,0.497-0.736,0.497  c-0.099,0-0.199-0.019-0.296-0.058c-0.406-0.164-0.604-0.626-0.439-1.032l2.384-5.921C26.707,40.18,27.169,39.981,27.575,40.146z   M37.325,13.807l2.385-5.921c0.164-0.407,0.625-0.604,1.031-0.44c0.407,0.164,0.604,0.627,0.44,1.033l-2.384,5.921  c-0.125,0.309-0.422,0.496-0.736,0.496c-0.099,0-0.199-0.018-0.296-0.057C37.359,14.675,37.162,14.213,37.325,13.807z   M12.623,19.421c0.164-0.407,0.626-0.604,1.032-0.44l5.921,2.385c0.406,0.163,0.604,0.626,0.439,1.032  c-0.124,0.31-0.422,0.497-0.736,0.497c-0.099,0-0.198-0.019-0.296-0.058l-5.921-2.385C12.656,20.289,12.459,19.827,12.623,19.421z   M46.356,32.147l5.921,2.384c0.407,0.164,0.604,0.626,0.44,1.032c-0.125,0.31-0.422,0.497-0.736,0.497  c-0.099,0-0.198-0.018-0.296-0.058l-5.921-2.384c-0.406-0.163-0.604-0.626-0.44-1.032C45.488,32.181,45.951,31.983,46.356,32.147z   M23.783,8.65c-0.171-0.403,0.017-0.869,0.419-1.041s0.869,0.016,1.041,0.419l2.501,5.873c0.171,0.403-0.016,0.869-0.419,1.04  c-0.102,0.044-0.207,0.063-0.311,0.063c-0.309,0-0.602-0.181-0.73-0.482L23.783,8.65z M45.641,21.107l5.873-2.502  c0.402-0.172,0.869,0.016,1.04,0.419c0.172,0.403-0.016,0.869-0.418,1.04l-5.874,2.502c-0.101,0.043-0.206,0.063-0.311,0.063  c-0.308,0-0.602-0.181-0.729-0.482C45.05,21.744,45.237,21.278,45.641,21.107z M19.7,33.878l-5.873,2.5  c-0.101,0.044-0.206,0.063-0.311,0.063c-0.308,0-0.601-0.181-0.729-0.481c-0.171-0.404,0.017-0.869,0.42-1.041l5.872-2.501  c0.402-0.172,0.869,0.016,1.04,0.419C20.291,33.241,20.104,33.706,19.7,33.878z M42.617,17.599  c-0.309-0.311-0.308-0.813,0.003-1.122l2.224-2.212c0.311-0.31,0.812-0.309,1.122,0.003c0.309,0.311,0.307,0.812-0.003,1.121  l-2.225,2.213c-0.154,0.153-0.356,0.23-0.559,0.23C42.976,17.832,42.772,17.754,42.617,17.599z M43.688,37.442l2.212,2.225  c0.309,0.31,0.308,0.812-0.003,1.121c-0.154,0.153-0.357,0.231-0.56,0.231c-0.203,0-0.407-0.078-0.562-0.234l-2.211-2.224  c-0.31-0.311-0.308-0.812,0.002-1.121C42.876,37.131,43.379,37.132,43.688,37.442z M19.44,15.319  c-0.308-0.311-0.307-0.812,0.003-1.121c0.312-0.31,0.813-0.308,1.122,0.003l2.212,2.224c0.31,0.311,0.308,0.812-0.003,1.121  c-0.154,0.154-0.356,0.231-0.559,0.231c-0.204,0-0.408-0.078-0.562-0.234L19.44,15.319z M32.621,46.246  c-0.438-0.001-0.792-0.357-0.791-0.796l0.009-3.137c0.001-0.437,0.355-0.79,0.793-0.79c0.001,0,0.002,0,0.002,0  c0.438,0.001,0.793,0.357,0.792,0.795l-0.009,3.137c-0.001,0.438-0.356,0.791-0.793,0.791  C32.623,46.246,32.622,46.246,32.621,46.246z M31.917,12.667l0.008-3.137c0.001-0.438,0.355-0.791,0.793-0.791  c0.001,0,0.002,0,0.002,0c0.438,0.001,0.793,0.357,0.792,0.796l-0.009,3.136c-0.001,0.438-0.356,0.791-0.793,0.791  c-0.001,0-0.001,0-0.002,0C32.27,13.461,31.916,13.104,31.917,12.667z M14.708,28.239c-0.438-0.001-0.793-0.357-0.791-0.795  c0.001-0.438,0.355-0.791,0.793-0.791c0.001,0,0.001,0,0.002,0l3.137,0.008c0.438,0.001,0.792,0.357,0.791,0.795  s-0.356,0.791-0.793,0.791c-0.001,0-0.001,0-0.002,0L14.708,28.239z M47.495,28.323c-0.438-0.001-0.792-0.357-0.791-0.795  s0.355-0.792,0.793-0.792c0.001,0,0.002,0,0.002,0l3.138,0.009c0.438,0.001,0.793,0.357,0.792,0.795  c-0.002,0.438-0.357,0.791-0.794,0.791c-0.001,0-0.001,0-0.002,0L47.495,28.323z M32.718,6.127c1.023,0,1.023,1.586,0,1.586  C31.695,7.713,31.695,6.127,32.718,6.127z M32.718,47.188c1.023,0,1.023,1.586,0,1.586C31.695,48.774,31.695,47.188,32.718,47.188z   M53.249,26.657c1.024,0,1.024,1.586,0,1.586C52.228,28.243,52.228,26.657,53.249,26.657z M12.187,26.657  c1.022,0,1.022,1.586,0,1.586C11.163,28.243,11.163,26.657,12.187,26.657z M47.236,41.175c1.022,0,1.022,1.586,0,1.586  C46.213,42.761,46.213,41.175,47.236,41.175z M18.2,12.14c1.022,0,1.022,1.587,0,1.587C17.177,13.727,17.177,12.14,18.2,12.14z   M18.2,42.761c-1.022,0-1.022-1.586,0-1.586C19.224,41.175,19.224,42.761,18.2,42.761z M47.236,12.14c1.023,0,1.023,1.587,0,1.587  C46.214,13.727,46.214,12.14,47.236,12.14z M69.814,68.482c1.023,0,1.023,1.585,0,1.585S68.791,68.482,69.814,68.482z M98.984,0.171  H1.016c-0.429,0-0.776,0.348-0.776,0.776v98.089c0,0.429,0.348,0.776,0.776,0.776h40.073c0.034,0.005,0.067,0.017,0.103,0.017  c0.042,0,0.086-0.01,0.128-0.017h57.665c0.429,0,0.776-0.348,0.776-0.776V0.947C99.761,0.519,99.413,0.171,98.984,0.171z   M98.208,1.723v60.846c-0.077-0.029-0.158-0.051-0.245-0.055c-2.645-0.122-5.296,0.249-7.935,0.998v-7.959l6.225,3.832  c0.129,0.081,0.273,0.118,0.415,0.118c0.267,0,0.526-0.134,0.676-0.377c0.229-0.373,0.114-0.862-0.259-1.092l-7.057-4.344v-1.634  l5.158,3.274c0.131,0.084,0.278,0.124,0.424,0.124c0.263,0,0.52-0.131,0.671-0.369c0.234-0.369,0.124-0.858-0.245-1.094  l-6.008-3.813V48.57l4.087,2.705c0.135,0.09,0.287,0.131,0.438,0.131c0.257,0,0.509-0.124,0.662-0.354  c0.241-0.365,0.142-0.857-0.223-1.1l-4.964-3.283v-1.567l3.013,2.113c0.138,0.098,0.297,0.145,0.454,0.145  c0.25,0,0.496-0.117,0.65-0.338c0.252-0.358,0.165-0.853-0.194-1.104l-3.923-2.753v-1.497l1.927,1.48  c0.144,0.11,0.314,0.164,0.483,0.164c0.237,0,0.472-0.106,0.628-0.311c0.268-0.347,0.202-0.845-0.145-1.111l-2.894-2.224V38.97  l0.821,0.739c0.151,0.137,0.342,0.204,0.531,0.204c0.216,0,0.433-0.089,0.589-0.263c0.294-0.325,0.268-0.827-0.059-1.12  l-2.146-1.933c-0.005-0.005-0.012-0.006-0.016-0.011c-0.067-0.058-0.144-0.104-0.227-0.138c-0.008-0.003-0.017-0.004-0.025-0.008  c-0.083-0.028-0.17-0.048-0.263-0.048c-0.092,0-0.18,0.02-0.262,0.048c-0.008,0.004-0.017,0.005-0.025,0.008  c-0.084,0.033-0.16,0.08-0.227,0.138c-0.005,0.005-0.012,0.006-0.017,0.011L86.56,38.53c-0.325,0.293-0.352,0.795-0.059,1.12  c0.294,0.326,0.796,0.353,1.12,0.059l0.821-0.739v0.696L85.55,41.89c-0.348,0.267-0.413,0.765-0.146,1.111  c0.267,0.349,0.766,0.413,1.112,0.146l1.926-1.48v1.497l-3.923,2.753c-0.358,0.252-0.445,0.746-0.193,1.104s0.747,0.445,1.104,0.193  l3.012-2.113v1.567l-4.962,3.283c-0.365,0.242-0.466,0.734-0.224,1.1c0.242,0.364,0.733,0.466,1.099,0.224l4.087-2.705v1.608  l-6.007,3.813c-0.37,0.235-0.479,0.725-0.245,1.094c0.235,0.371,0.726,0.48,1.095,0.245l5.157-3.274v1.634l-7.055,4.344  c-0.375,0.229-0.49,0.719-0.261,1.092c0.23,0.374,0.719,0.489,1.091,0.259l6.225-3.832v8.459c-4.822,1.644-9.583,4.485-14.159,7.845  V59.644l5.158,3.274c0.131,0.084,0.278,0.124,0.424,0.124c0.263,0,0.52-0.131,0.67-0.369c0.235-0.369,0.125-0.858-0.245-1.094  l-6.007-3.813v-1.608l4.087,2.705c0.135,0.09,0.287,0.131,0.438,0.131c0.257,0,0.509-0.124,0.661-0.354  c0.242-0.366,0.143-0.857-0.223-1.1l-4.963-3.284v-1.566l3.013,2.113c0.138,0.098,0.297,0.144,0.454,0.144  c0.249,0,0.495-0.117,0.649-0.337c0.253-0.358,0.165-0.854-0.193-1.104l-3.923-2.754v-1.496l1.926,1.479  c0.145,0.111,0.315,0.164,0.483,0.164c0.237,0,0.473-0.105,0.629-0.309c0.268-0.348,0.202-0.846-0.146-1.112l-2.893-2.224v-0.696  l0.821,0.739c0.151,0.137,0.341,0.204,0.531,0.204c0.216,0,0.433-0.089,0.589-0.263c0.294-0.325,0.268-0.827-0.059-1.12  l-2.146-1.933c-0.005-0.005-0.012-0.006-0.016-0.011c-0.067-0.058-0.144-0.104-0.227-0.138c-0.009-0.003-0.017-0.004-0.025-0.008  C73.67,44,73.583,43.98,73.49,43.98c-0.092,0-0.18,0.02-0.263,0.048c-0.008,0.004-0.017,0.005-0.024,0.008  c-0.084,0.033-0.16,0.08-0.227,0.138c-0.005,0.005-0.012,0.006-0.017,0.011l-2.146,1.933c-0.325,0.293-0.352,0.795-0.059,1.12  c0.294,0.326,0.796,0.353,1.12,0.059l0.821-0.739v0.696l-2.894,2.224c-0.347,0.267-0.412,0.765-0.145,1.112  c0.267,0.348,0.765,0.412,1.111,0.145l1.927-1.479v1.496l-3.923,2.754c-0.359,0.251-0.445,0.746-0.194,1.104  c0.253,0.358,0.748,0.445,1.105,0.193l3.012-2.113v1.566l-4.963,3.284c-0.364,0.242-0.465,0.733-0.224,1.1  c0.243,0.364,0.734,0.466,1.1,0.224l4.087-2.705v1.608l-6.008,3.813c-0.369,0.235-0.479,0.725-0.245,1.094  c0.236,0.371,0.728,0.48,1.096,0.245l5.157-3.274V73.01c0,0.011,0.002,0.021,0.003,0.032c-4.1,3.139-8.033,6.632-11.711,9.972  c-0.082-0.029-0.17-0.049-0.262-0.049H50.153c-0.438,0-0.793,0.355-0.793,0.794c0,0.438,0.354,0.793,0.793,0.793h9.147  c-0.147,0.135-0.296,0.271-0.443,0.405c-0.662,0.605-1.314,1.199-1.959,1.785H38.153c-0.438,0-0.794,0.355-0.794,0.794  c0,0.437,0.355,0.792,0.794,0.792h16.991c-2.679,2.407-5.188,4.571-7.501,6.283c-6.421-2.961-13.04-8.257-19.245-13.68h23.173  c0.438,0,0.794-0.356,0.794-0.794s-0.355-0.793-0.794-0.793H26.599c-1.26-1.118-2.501-2.232-3.715-3.322  c-0.874-0.786-1.742-1.564-2.604-2.333h45.919c0.438,0,0.793-0.355,0.793-0.794c0-0.438-0.355-0.793-0.793-0.793H20.024  c-0.395,0-0.719,0.288-0.78,0.666c-2.729-2.421-5.384-4.694-7.914-6.61c0.016-0.063,0.027-0.128,0.027-0.194v-3.882  c0.002-0.032,0.002-0.065,0-0.099v-5.686l5.156,3.274c0.132,0.084,0.279,0.124,0.425,0.124c0.262,0,0.52-0.131,0.67-0.368  c0.235-0.369,0.126-0.86-0.244-1.095l-6.007-3.814v-1.607l4.087,2.705c0.134,0.09,0.286,0.132,0.437,0.132  c0.257,0,0.51-0.125,0.662-0.355c0.242-0.366,0.142-0.857-0.224-1.1l-4.962-3.283v-1.567l3.011,2.113  c0.139,0.098,0.298,0.144,0.455,0.144c0.249,0,0.496-0.117,0.649-0.337c0.252-0.358,0.166-0.853-0.193-1.104l-3.922-2.754v-1.497  l1.926,1.48c0.144,0.111,0.314,0.164,0.482,0.164c0.238,0,0.474-0.105,0.63-0.309c0.267-0.349,0.201-0.846-0.146-1.113l-2.893-2.224  v-0.695l0.82,0.739c0.152,0.137,0.342,0.204,0.531,0.204c0.216,0,0.433-0.089,0.589-0.263c0.294-0.325,0.268-0.826-0.059-1.12  l-2.145-1.933c-0.005-0.005-0.012-0.006-0.018-0.01c-0.066-0.058-0.142-0.105-0.226-0.139c-0.009-0.003-0.017-0.005-0.025-0.008  c-0.082-0.029-0.17-0.048-0.263-0.048c-0.092,0-0.18,0.019-0.263,0.048c-0.008,0.003-0.017,0.005-0.024,0.008  c-0.084,0.033-0.16,0.081-0.227,0.139c-0.005,0.004-0.012,0.005-0.017,0.01l-2.146,1.933c-0.325,0.294-0.352,0.795-0.059,1.12  c0.293,0.326,0.796,0.353,1.12,0.059l0.821-0.739v0.695L6.878,46.13c-0.348,0.268-0.413,0.765-0.146,1.113  c0.267,0.348,0.765,0.411,1.112,0.145l1.926-1.48v1.497l-3.923,2.754c-0.358,0.252-0.445,0.746-0.193,1.104  c0.252,0.357,0.746,0.446,1.104,0.193l3.012-2.113v1.567l-4.962,3.283c-0.365,0.242-0.466,0.733-0.225,1.1  c0.242,0.365,0.735,0.467,1.1,0.224l4.087-2.705v1.607l-6.007,3.814c-0.37,0.234-0.479,0.726-0.245,1.095  c0.235,0.37,0.726,0.479,1.095,0.244l5.157-3.274v8.716c-2.858-2.029-5.542-3.529-7.972-4.152c-0.002-0.001-0.005-0.001-0.007-0.002  V1.723H98.208z M1.792,62.516c5.469,1.608,12.545,7.958,20.031,14.687c1.057,0.95,2.135,1.918,3.228,2.891  c-0.001,0.015-0.005,0.029-0.005,0.045c0,0.438,0.355,0.794,0.794,0.794h0.156c6.419,5.677,13.351,11.391,20.173,14.726  c-1.867,1.263-3.593,2.179-5.15,2.603H1.792V62.516z M44.974,98.26c4.317-2.431,9.338-7.005,14.954-12.131  c10.789-9.85,24.156-22.052,37.05-22.052c0.306,0,0.609,0.008,0.914,0.021c0.113,0.003,0.22-0.015,0.316-0.051V98.26H44.974z"></path></svg>