<svg xmlns="http://www.w3.org/2000/svg" xmlns:xlink="http://www.w3.org/1999/xlink" version="1.1" x="0px" y="0px" viewBox="0 0 100 100" enable-background="new 0 0 100 100" xml:space="preserve"><g><g><path d="M5.2,65.5c-1.7-5-2.6-10.2-2.6-15.5c0-26.2,21.3-47.5,47.5-47.5S97.6,23.8,97.6,50c0,5.1-0.8,10.2-2.4,15l-1.7-0.6    C95,59.8,95.8,55,95.8,50c0-25.2-20.5-45.7-45.7-45.7S4.4,24.8,4.4,50c0,5.1,0.8,10.1,2.5,14.9L5.2,65.5z"></path></g><g><g><path d="M63.4,51.2C63.4,51.2,63.4,51.2,63.4,51.2c-4.6,0-10.6-1.2-12.3-4.2c-0.6-1.2-0.4-3.1,0.8-5.6c0.9-1.8,2.2-3.9,3.7-5.8     c-1.3-0.6-2.2-1.3-2.6-2.1c-0.7-1.3,0.1-3.6,0.9-5.2c0.9-1.7,2.2-3.6,3.5-5.1c-0.6-0.4-1.1-0.8-1.4-1.3c-0.6-1.1,0.2-3,1-4.3     c1.2-2,3.7-5.1,5.6-5.1c0.1,0,0.1,0,0.2,0c1.7,0.2,4.5,2.9,6.1,5.4c1,1.6,1.4,2.8,1.1,3.7c-0.2,0.7-0.8,1.3-1.7,1.7     c2.7,2.7,6,7.2,5.2,9.7c-0.4,1.2-1.5,2.1-3.2,2.8c2.6,2.9,6.1,7.9,5.2,10.6C74.5,49.9,68.3,51.2,63.4,51.2z M62.6,13.7     c-0.8,0-3,2-4.5,4.5c-0.9,1.6-1.2,2.7-1,3.1c0.2,0.4,0.8,0.8,1.6,1.1l0.9,0.3l-0.7,0.7c-3.2,3.3-5.6,8.1-4.9,9.5     c0.4,0.7,1.4,1.4,2.8,1.9l0.9,0.3l-0.6,0.7c-3.5,4.1-5.8,9.2-4.9,10.8c1.1,2,5.7,3.7,11.2,3.7c0,0,0,0,0,0c5.8,0,10.3-1.8,11-4.1     c0.6-1.7-1.9-6.1-5.6-10.1L68,35.3l1-0.3c1.8-0.6,3-1.4,3.3-2.3c0.5-1.6-2.1-5.8-5.6-9.1L66,22.8l1-0.3c1-0.3,1.6-0.8,1.8-1.3     c0.1-0.4-0.1-1.2-1-2.6C66.2,16.1,63.6,13.8,62.6,13.7C62.6,13.7,62.6,13.7,62.6,13.7z"></path></g><g><path d="M34.1,50.2C34.1,50.2,34.1,50.2,34.1,50.2c-4.1,0-9.5-0.8-11-3.5c-1.2-2.2,1.5-6.9,4-10c-1.1-0.5-1.9-1.1-2.3-1.8     c-0.5-1-0.3-2.5,0.8-4.7c0.8-1.5,1.9-3.1,3.1-4.5c-0.6-0.3-0.9-0.7-1.2-1.1c-0.6-1,0.2-2.7,0.9-3.9c1-1.8,3.3-4.6,5-4.6     c0.1,0,0.1,0,0.2,0c1.7,0.2,4.2,2.9,5.5,4.8c0.9,1.4,1.3,2.5,1,3.3c-0.2,0.6-0.7,1.2-1.5,1.6c2.4,2.5,5.3,6.5,4.6,8.7     c-0.3,1-1.3,1.9-2.8,2.5c2.3,2.6,5.4,6.7,4.6,9.1C44,49.3,38.5,50.2,34.1,50.2z M33.4,17.3c-0.8,0-2.6,1.8-4,4     c-0.9,1.5-1,2.5-0.9,2.7c0.2,0.3,0.7,0.7,1.4,0.9l0.9,0.3L30.2,26c-3.1,3.2-5,7.3-4.3,8.4c0.4,0.6,1.2,1.2,2.4,1.6l0.9,0.3     L28.5,37c-3.1,3.6-5.1,7.9-4.4,9.2c1,1.8,5.1,3,9.9,3c0,0,0,0,0,0c5.1,0,9.1-1.3,9.7-3.3c0.5-1.5-1.7-5.3-5-8.8l-0.7-0.7l1-0.3     c1.6-0.5,2.6-1.2,2.9-2c0.4-1.4-1.9-5.1-5-8l-0.8-0.7l1-0.3c0.9-0.3,1.4-0.7,1.6-1.1c0.1-0.3-0.1-1.1-0.9-2.3     C36.6,19.4,34.3,17.6,33.4,17.3C33.4,17.3,33.4,17.3,33.4,17.3z"></path></g><g><path d="M39.1,26.9l-1.2-0.4c0.7-2.2,2.5-5,4.5-7.3c-0.7-0.4-1.1-0.8-1.4-1.3c-0.8-1.4,0.8-4.2,1.6-5.3c1.1-1.7,3.5-4.6,5.3-4.3     c1.7,0.2,4.6,3,6.2,5.5c1,1.6,1.4,2.9,1.1,3.7c-0.2,0.7-0.8,1.3-1.7,1.8c1.5,1.5,2.9,3.3,3.9,4.9l-1.1,0.7     c-1.1-1.7-2.7-3.7-4.4-5.3l-0.8-0.7l1-0.3c1-0.3,1.7-0.8,1.8-1.3c0.1-0.4-0.1-1.3-1-2.7c-1.7-2.6-4.2-4.8-5.3-4.9     c-0.7-0.1-2.5,1.4-4.1,3.8c-1.3,2-1.7,3.5-1.5,3.9c0.2,0.4,0.8,0.8,1.6,1.1l0.9,0.3L44,19.4C41.8,21.6,39.9,24.7,39.1,26.9z"></path></g></g><g><path d="M48.5,47.4c-1.3,0-2.7-0.1-4-0.2l0.2-1.3c2.2,0.3,4.7,0.3,7,0.1l0.1,1.3C50.7,47.4,49.6,47.4,48.5,47.4z"></path></g><g><path d="M36.5,54.8h-4.8c-0.4,0-0.6-0.3-0.6-0.6v-3.6c0-0.4,0.3-0.6,0.6-0.6h4.8c0.4,0,0.6,0.3,0.6,0.6v3.6    C37.1,54.6,36.8,54.8,36.5,54.8z"></path></g><g><path d="M49.9,54.2h-4.4c-0.4,0-0.8-0.4-0.8-0.8V47c0-0.4,0.4-0.8,0.8-0.8h4.4c0.4,0,0.8,0.4,0.8,0.8v6.3    C50.7,53.8,50.4,54.2,49.9,54.2z"></path></g><g><path d="M65.6,58.3h-4.4c-0.4,0-0.8-0.4-0.8-0.8v-6.3c0-0.4,0.4-0.8,0.8-0.8h4.4c0.4,0,0.8,0.4,0.8,0.8v6.3    C66.4,58,66.1,58.3,65.6,58.3z"></path></g><g><g><path d="M58.9,68.6C72,82.3,83.4,79.5,87.4,77.9c2.9-3.9,5.3-8.4,6.9-13.1l-0.5-0.4c0,0-11.3-10.5-39.4-11.5l-5.4-0.1     c-6.1,0.1-11.6,0.7-16.4,1.6C39,54.7,48.4,57.7,58.9,68.6z"></path><path d="M80,80.2C80,80.2,80,80.2,80,80.2c-9.3,0-17-6-21.8-11c-5.8-6-14.9-13.3-25.6-14l-7.1-0.4l7-1.4c5.3-1,10.9-1.6,16.6-1.6     l5.4,0.1c28.2,1,39.5,11.3,40,11.8l0.9,0.8L95.2,65c-1.6,4.8-4,9.3-7,13.4L88,78.6l-0.2,0.1C86.1,79.4,83.5,80.2,80,80.2z      M38.3,54.4c8.8,2.3,16.2,8.4,21.2,13.6C66,74.7,73.1,78.2,80,78.2c0,0,0,0,0,0c3,0,5.3-0.6,6.8-1.2c2.7-3.7,4.9-7.7,6.4-12.1     l0,0c0,0-2.9-2.6-9-5.3c-5.7-2.5-15.5-5.5-29.8-6L49,53.6C45.4,53.7,41.8,53.9,38.3,54.4z"></path></g><g><path d="M50.1,71c-7.7-12.8-20.9-14.2-27.2-14.1c-11,3.6-16.4,8.3-16.4,8.3l-0.4,0c6.3,18.3,23.6,31.4,44.1,31.4     c6.7,0,13-1.4,18.7-3.9C65.2,90.8,59.2,86,50.1,71z"></path><path d="M50.1,97.5c-20.3,0-38.3-12.9-44.9-32l-0.4-1.2l1.3,0c1.2-1,6.7-5,16.5-8.3l0.1,0l0.1,0c0.2,0,0.5,0,0.7,0     c6.9,0,19.7,1.9,27.3,14.5c6.9,11.4,13.1,18.6,18.3,21.4l1.7,0.9l-1.7,0.8C63.1,96.2,56.7,97.5,50.1,97.5z M7.2,65.7     c6.6,18,23.7,30,42.9,30c5.8,0,11.4-1.1,16.7-3.1c-5.2-3.4-11-10.3-17.4-21.1c-7.2-11.9-19.2-13.7-25.7-13.7c-0.2,0-0.4,0-0.6,0     C13.5,60.9,8.2,64.9,7.2,65.7z"></path></g></g></g></svg>