<svg xmlns="http://www.w3.org/2000/svg" xmlns:xlink="http://www.w3.org/1999/xlink" version="1.1" x="0px" y="0px" viewBox="0 0 128 128" style="enable-background:new 0 0 128 128;" xml:space="preserve"><style type="text/css">
	.st0{display:none;}
	.st1{display:inline;}
</style><g><g><path d="M40.1,98.3l2.2-1.1l-7.1-8.9c0.5-0.2,1-0.4,1.5-0.7l2.2-1.1L32.2,78c0.3-0.1,0.5-0.2,0.8-0.4l2.2-1.1L23.6,61.8L12.3,76.6    l2.2,1.1c0.2,0.1,0.5,0.2,0.7,0.3l-6.7,8.6l2.2,1.1c0.4,0.2,0.9,0.4,1.4,0.6l-6.9,9l2.2,1.1c4.6,2.2,9.4,3.5,14.3,3.8V117h4v-14.9    C30.7,101.8,35.5,100.6,40.1,98.3z M18.7,86.3L16,85.4c-0.4-0.1-0.8-0.3-1.2-0.4l7-9.1l-2.8-0.8c-0.2,0-0.3-0.1-0.5-0.1l5.1-6.6    l5.3,6.6c-0.2,0.1-0.4,0.1-0.6,0.2L25.5,76l7.2,9.1c-0.4,0.2-0.9,0.3-1.3,0.4l-2.8,0.9l7.4,9.4c-3.8,1.5-7.7,2.3-11.7,2.4    c-4.4,0.1-8.7-0.7-12.9-2.4L18.7,86.3z"></path><path d="M22.8,55.8c3.9,1.9,7.8,2.9,11.9,3.2v12.3h4V59c4.1-0.3,8.1-1.3,11.9-3.2l2.2-1.1l-5.9-7.5c0.3-0.1,0.6-0.3,0.9-0.4    l2.2-1.1l-5.7-7.2c0.1-0.1,0.2-0.1,0.3-0.2l2.2-1.1l-10.3-13l-10,13l2.2,1.1c0.1,0,0.2,0.1,0.3,0.1l-5.6,7.3l2.2,1.1    c0.3,0.1,0.5,0.2,0.8,0.4l-5.8,7.6L22.8,55.8z M32.9,45.2l-2.7-0.9c-0.2-0.1-0.4-0.1-0.6-0.2l5.9-7.7l-2.8-0.8l3.8-4.9l3.9,4.9    c0,0,0,0,0,0l-2.9,0.8l6.1,7.7c-0.2,0.1-0.4,0.2-0.7,0.2l-2.8,0.9l6.3,7.9c-3.1,1.2-6.2,1.8-9.4,1.9c-3.5,0.1-7-0.6-10.4-1.9    L32.9,45.2z"></path><path d="M118.4,97.7l2.2-1.1l-4.4-5.5l2-1l-8.6-10.9l-8.4,10.9l1.9,0.9l-4.3,5.6l2.2,1.1c0,0,0.1,0,0.1,0l-3.2,4.1    c0.1-3.4,0-6.7-0.4-10c-1.3-10.4-4.6-17.5-7.6-23.7c-2.9-6.1-5.2-10.9-4.4-16.8c1.3-9.1,9.6-17.6,24.9-25.3l6-3l-6.7-0.7    c-6.3-0.7-18.8-0.8-31.5,6.3c-3.6,2-11.7,7.3-18.1,16.7v-8.6c3-0.3,6-1.1,8.8-2.5l2.2-1.1l-4.5-5.7c0,0,0.1,0,0.1-0.1l2.2-1.1    l-4.4-5.5l2-1L58,8.8l-8.4,10.9l1.9,0.9l-4.3,5.6l2.2,1.1c0,0,0,0,0.1,0L45.1,33l2.2,1.1c2.9,1.4,5.8,2.2,8.8,2.4v9h3.8    c-1.3,2-2.5,4.1-3.6,6.4c-4,8.4-4,14.7-4.1,20.8c-0.1,5.4-0.1,10.4-2.8,16.9c-4.1,9.8-11.8,18.1-23,24.8l2.1,3.4    c11.9-7.1,20.2-16.1,24.7-26.7c3-7.2,3.1-12.9,3.1-18.4c0.1-5.9,0.1-11.5,3.7-19.1c6-12.7,16.1-19.4,20.2-21.7    c8-4.4,15.9-5.8,22-6c-12.5,7.5-19.4,15.8-20.6,24.8c-1,7.1,1.7,12.7,4.8,19.1c2.9,6,6.1,12.7,7.3,22.4c1,8.4,0.2,17.1-2.3,25.8    l3.8,1.1c1.5-5.1,2.4-10.2,2.7-15.2l1.1,0.5c2.9,1.4,5.8,2.2,8.8,2.4v9h4V107c3-0.3,6-1.1,8.8-2.5l2.2-1.1l-4.5-5.7    C118.3,97.7,118.3,97.7,118.4,97.7z M58.1,15.3l2.2,2.7l-2.2,0.6l0,0L56,18L58.1,15.3z M56,25.4l-2.5-0.8l4.5-5.9l4.7,5.9    l-2.6,0.8l4.8,6.1c-2.1,0.7-4.2,1.1-6.4,1.2c-2.4,0-4.8-0.4-7.2-1.2L56,25.4z M109.6,85.7l2.2,2.7l-2.2,0.6l0,0l-2.1-0.6    L109.6,85.7z M110,103.1c-2.4,0-4.8-0.4-7.2-1.2l4.7-6.1l-2.5-0.8l4.5-5.9l4.7,5.9l-2.6,0.8l4.8,6.1    C114.3,102.7,112.2,103.1,110,103.1z"></path><path d="M117.7,52.6l-5.6-7.1c0.1,0,0.2-0.1,0.3-0.1l2.2-1.1l-10.2-12.9l-10,12.9l2.2,1.1c0.1,0,0.1,0.1,0.2,0.1l-5.5,7.2l2.2,1.1    c0.2,0.1,0.5,0.2,0.8,0.3l-5.8,7.5l2.2,1.1c3.8,1.8,7.7,2.9,11.8,3.2v12.1h4V65.8c4-0.3,8-1.3,11.8-3.2l2.2-1.1l-5.9-7.4    c0.3-0.1,0.6-0.3,0.8-0.4L117.7,52.6z M105,61.9c-3.5,0-6.9-0.6-10.2-1.8l6.1-7.9l-2.7-0.9c-0.2-0.1-0.4-0.1-0.5-0.2l5.9-7.6    l-2.7-0.8l3.7-4.8l3.8,4.8l-2.9,0.8l6,7.6c-0.2,0.1-0.4,0.1-0.6,0.2l-2.8,0.9l6.2,7.8C111.2,61.2,108.1,61.8,105,61.9z"></path></g></g></svg>