<svg xmlns="http://www.w3.org/2000/svg" xmlns:xlink="http://www.w3.org/1999/xlink" version="1.1" x="0px" y="0px" viewBox="0 0 100 100" enable-background="new 0 0 100 100" xml:space="preserve"><g><path fill="#000000" d="M50,95c24.813,0,45-20.187,45-45S74.813,5,50,5S5,25.187,5,50S25.187,95,50,95z M11.862,70.882   l6.689-10.421v0.981l-5.754,11.065C12.474,71.974,12.164,71.431,11.862,70.882z M11.028,69.275l7.524-10.072v0.98l-6.774,10.553   C11.516,70.255,11.271,69.765,11.028,69.275z M10.324,67.779l8.228-9.812v0.983l-7.601,10.175   C10.733,68.682,10.527,68.231,10.324,67.779z M9.715,66.363l8.837-9.617v0.986l-8.297,9.894   C10.069,67.209,9.888,66.788,9.715,66.363z M9.177,65.002l9.375-9.468v0.989l-8.899,9.684C9.492,65.806,9.327,65.408,9.177,65.002z    M8.718,63.659l9.834-9.333v0.992L9.12,64.844C8.978,64.453,8.85,64.056,8.718,63.659z M8.305,62.349l10.247-9.226v0.995   l-9.887,9.383C8.54,63.12,8.42,62.736,8.305,62.349z M7.937,61.057l10.615-9.134v0.997L8.259,62.188   C8.149,61.812,8.037,61.437,7.937,61.057z M7.62,59.73l10.932-9.006v1l-10.66,9.173C7.792,60.512,7.709,60.12,7.62,59.73z    M20.545,43.946v12.138H19.08V43.946H20.545z M31.002,49.123v1.065h-1.065v-1.065H31.002z M31.159,45.498h0.434v1.963h-0.434   V45.498z M31.744,45.498h0.623v1.963h-0.623V45.498z M42.236,47.461h-0.434v-1.963h0.434V47.461z M41.65,47.461h-0.623v-1.963   h0.623V47.461z M40.877,47.461h-0.622v-1.963h0.622V47.461z M40.103,47.461h-0.623v-1.963h0.623V47.461z M34.688,45.498v1.963   h-0.623v-1.963H34.688z M34.839,45.498h0.623v1.963h-0.623V45.498z M35.612,45.498h0.622v1.963h-0.622V45.498z M36.386,45.498   h0.623v1.963h-0.623V45.498z M37.16,45.498h0.623v1.963H37.16V45.498z M37.933,45.498h0.622v1.963h-0.622V45.498z M38.707,45.498   h0.623v1.963h-0.623V45.498z M36.961,43.937v-8.106l2.664,8.106H36.961z M36.433,43.937h-2.664l2.664-8.106V43.937z M33.867,44.465   h2.831h2.83v0.505h-5.661V44.465z M33.914,45.498v1.963h-0.622v-1.963H33.914z M33.141,47.461h-0.623v-1.963h0.623V47.461z    M41.075,47.989v0.606H32.32v-0.606H41.075z M80.92,43.946v12.138h-1.465V43.946H80.92z M92.117,60.868l-10.668-9.18v-0.999   l10.939,9.012C92.298,60.091,92.216,60.483,92.117,60.868z M91.75,62.158l-10.301-9.275v-0.996l10.623,9.141   C91.972,61.408,91.859,61.782,91.75,62.158z M91.345,63.472l-9.897-9.393v-0.993l10.255,9.234   C91.589,62.706,91.47,63.09,91.345,63.472z M90.891,64.813l-9.442-9.536v-0.99l9.844,9.342   C91.161,64.025,91.033,64.422,90.891,64.813z M90.36,66.175l-8.911-9.698v-0.986l9.387,9.48   C90.686,65.377,90.521,65.775,90.36,66.175z M89.76,67.594l-8.311-9.912v-0.982l8.85,9.631   C90.125,66.756,89.945,67.176,89.76,67.594z M89.066,69.092l-7.618-10.198v-0.976l8.242,9.829   C89.488,68.198,89.284,68.649,89.066,69.092z M88.242,70.7l-6.793-10.583v-0.971l7.541,10.095   C88.747,69.731,88.502,70.22,88.242,70.7z M87.224,72.469l-5.776-11.108v-0.966l6.709,10.452   C87.857,71.395,87.547,71.936,87.224,72.469z M82.197,79.208h-0.749v-3.612c1.177,0.067,2.354,0.14,3.531,0.214   C84.107,76.988,83.181,78.124,82.197,79.208z M14.223,74.688l4.329-11.487v11.863c-1.298,0.073-2.596,0.154-3.893,0.236   C14.513,75.097,14.366,74.894,14.223,74.688z M19.08,56.612h1.465v17.404H19.08V56.612z M33.812,49.123v1.065h-1.254v-1.065H33.812   z M77.104,79.208c-2.149-0.453-4.339-0.854-6.512-1.199v-2.922c2.762,0.102,5.562,0.227,8.335,0.372v3.749H77.104z M66.645,90.174   h-0.201v-1.515h1.682v0.86C67.636,89.745,67.144,89.966,66.645,90.174z M55.175,93.173v-1.428l1.242-0.646v1.496l-1.069,0.557   C55.29,93.158,55.233,93.166,55.175,93.173z M48.4,73.613l1.053-0.548v1.496L48.4,75.108V73.613z M78.927,62.773l-4.5,11.941   c-0.731-0.032-1.457-0.059-2.185-0.089l6.685-12.856V62.773z M78.927,61.443l-6.852,13.176c-0.494-0.02-0.991-0.042-1.483-0.06   v-1.113l8.335-12.984V61.443z M65.916,90.349l-0.094,0.069v-1.479l0.094-0.069V90.349z M57.621,90.302l-1.053,0.548v-1.495   l1.053-0.548V90.302z M48.4,75.279l1.053-0.548v1.496L48.4,76.775V75.279z M48.4,36.96l1.053-0.548v1.496L48.4,38.456V36.96z    M78.927,55.319l-8.335,8.418v-1.5l8.335-7.91V55.319z M65.916,87.017l-0.094,0.069v-1.479l0.094-0.069V87.017z M48.4,78.611   l1.053-0.548v1.495L48.4,80.106V78.611z M65.916,55.363l-0.094,0.069v-1.479l0.094-0.069V55.363z M65.916,85.351l-0.094,0.069   V83.94l0.094-0.069V85.351z M65.916,53.697l-0.094,0.069v-1.479l0.094-0.069V53.697z M70.064,70.182h-1.787v-1.515h1.787V70.182z    M68.126,70.182h-1.682v-1.515h1.682V70.182z M65.916,75.355l-0.094,0.069v-1.479l0.094-0.069V75.355z M65.916,83.685l-0.094,0.069   v-1.479l0.094-0.069V83.685z M65.916,72.023l-0.094,0.069v-1.479l0.094-0.069V72.023z M55.175,78.417l1.242-0.646v1.496   l-1.242,0.646V78.417z M55.024,79.991l-1.241,0.646v-1.496l1.241-0.646V79.991z M56.568,77.692l1.053-0.548v1.496l-1.053,0.548   V77.692z M60.712,47.009v1.515h-2.563v-1.515H60.712z M58.149,46.858v-1.515h2.563v1.515H58.149z M60.712,48.675v1.515h-2.563   v-1.515H60.712z M60.863,48.675h2.979v1.515h-2.979V48.675z M60.863,48.524v-1.515h2.979v1.515H60.863z M60.863,46.858v-1.515   h2.979v1.515H60.863z M60.863,45.192v-1.515h2.979v1.515H60.863z M60.712,45.192h-2.563v-1.515h2.563V45.192z M58.149,55.188   v-1.515h2.563v1.515H58.149z M60.712,55.339v1.515h-2.563v-1.515H60.712z M58.149,53.522v-1.515h2.563v1.515H58.149z    M58.149,51.856V50.34h2.563v1.515H58.149z M60.863,50.34h2.979v1.515h-2.979V50.34z M63.842,43.525h-2.979v-1.515h2.979V43.525z    M60.712,43.525h-2.563v-1.515h2.563V43.525z M57.621,43.653l-1.053,0.548v-1.495l1.053-0.548V43.653z M57.621,43.824v1.496   l-1.053,0.548v-1.496L57.621,43.824z M57.621,45.49v1.496l-1.053,0.548v-1.496L57.621,45.49z M57.621,47.156v1.496l-1.053,0.548   v-1.496L57.621,47.156z M57.621,48.822v1.495l-1.053,0.548V49.37L57.621,48.822z M57.621,50.488v1.496l-1.053,0.548v-1.496   L57.621,50.488z M57.621,52.154v1.496l-1.053,0.548v-1.496L57.621,52.154z M57.621,53.82v1.496l-1.053,0.548v-1.496L57.621,53.82z    M60.712,57.005v1.515h-2.563v-1.515H60.712z M60.712,58.671v1.515h-2.563v-1.515H60.712z M60.712,60.337v1.515h-2.563v-1.515   H60.712z M60.712,62.003v1.515h-2.563v-1.515H60.712z M60.712,63.669v1.515h-2.563v-1.515H60.712z M60.863,75.18v-1.515h2.979   v1.515H60.863z M63.842,75.331v1.515h-2.979v-1.515H63.842z M60.863,73.514v-1.515h2.979v1.515H60.863z M63.842,67.001v1.515   h-2.979v-1.515H63.842z M60.863,66.85v-1.515h2.979v1.515H60.863z M63.842,68.667v1.515h-2.979v-1.515H63.842z M63.842,70.333   v1.515h-2.979v-1.515H63.842z M64.37,67.087l0.386,0.121v1.508l-0.386-0.121V67.087z M64.37,66.929v-1.508l0.386,0.121v1.508   L64.37,66.929z M60.863,65.184v-1.515h2.979v1.515H60.863z M60.712,65.335v1.515h-2.563v-1.515H60.712z M60.712,67.001v1.515   h-2.563v-1.515H60.712z M60.712,68.667v1.515h-2.563v-1.515H60.712z M60.712,70.333v1.515h-2.563v-1.515H60.712z M60.712,71.999   v1.515h-2.563v-1.515H60.712z M60.712,73.665v1.515h-2.563v-1.515H60.712z M60.712,75.331v1.515h-2.563v-1.515H60.712z    M60.712,76.997v1.515h-2.563v-1.515H60.712z M60.863,76.997h2.979v1.515h-2.979V76.997z M64.37,70.419l0.386,0.121v1.508   l-0.386-0.121V70.419z M64.37,70.261v-1.508l0.386,0.121v1.508L64.37,70.261z M64.908,68.921l0.386,0.121v1.508l-0.386-0.121   V68.921z M64.908,68.763v-1.508l0.386,0.121v1.508L64.908,68.763z M64.908,67.097v-1.508l0.386,0.121v1.508L64.908,67.097z    M65.294,65.552l-0.386-0.121v-1.508l0.386,0.121V65.552z M64.757,65.384l-0.386-0.121v-1.508l0.386,0.121V65.384z M60.863,63.518   v-1.515h2.979v1.515H60.863z M60.863,61.852v-1.515h2.979v1.515H60.863z M60.863,60.186v-1.515h2.979v1.515H60.863z M60.863,58.52   v-1.515h2.979v1.515H60.863z M60.863,56.854v-1.515h2.979v1.515H60.863z M60.863,55.188v-1.515h2.979v1.515H60.863z M60.863,53.522   v-1.515h2.979v1.515H60.863z M64.37,48.761l0.386,0.121v1.508l-0.386-0.121V48.761z M64.37,48.603v-1.508l0.386,0.121v1.508   L64.37,48.603z M64.37,46.937v-1.508l0.386,0.121v1.508L64.37,46.937z M64.37,45.271v-1.508l0.386,0.121v1.508L64.37,45.271z    M64.37,43.605v-1.508l0.386,0.121v1.508L64.37,43.605z M64.37,41.939v-1.508l0.386,0.121v1.508L64.37,41.939z M63.842,41.86   h-2.979v-1.515h2.979V41.86z M60.712,41.86h-2.563v-1.515h2.563V41.86z M57.621,41.987l-1.053,0.548V41.04l1.053-0.548V41.987z    M56.417,42.614l-1.242,0.646v-1.496l1.242-0.646V42.614z M56.417,42.784v1.495l-1.242,0.646v-1.495L56.417,42.784z M56.417,44.45   v1.496l-1.242,0.646v-1.496L56.417,44.45z M56.417,46.116v1.496l-1.242,0.646v-1.496L56.417,46.116z M56.417,47.782v1.496   l-1.242,0.646v-1.496L56.417,47.782z M56.417,49.448v1.495l-1.242,0.646v-1.495L56.417,49.448z M56.417,51.114v1.496l-1.242,0.646   v-1.496L56.417,51.114z M56.417,52.78v1.496l-1.242,0.646v-1.496L56.417,52.78z M56.417,54.447v1.496l-1.242,0.646v-1.496   L56.417,54.447z M56.417,56.113v1.495l-1.242,0.646v-1.495L56.417,56.113z M56.568,56.034l1.053-0.548v1.495l-1.053,0.548V56.034z    M60.712,78.663v1.515h-2.563v-1.515H60.712z M60.863,78.663h2.979v1.515h-2.979V78.663z M64.37,78.749l0.386,0.121v1.508   l-0.386-0.121V78.749z M64.37,78.591v-1.508l0.386,0.121v1.508L64.37,78.591z M64.37,76.925v-1.508l0.386,0.121v1.508L64.37,76.925   z M64.37,75.259v-1.508l0.386,0.121v1.508L64.37,75.259z M64.37,73.593v-1.508l0.386,0.121v1.508L64.37,73.593z M64.908,72.253   l0.386,0.121v1.508l-0.386-0.121V72.253z M64.908,72.095v-1.508l0.386,0.121v1.508L64.908,72.095z M65.294,63.886l-0.386-0.121   v-1.508l0.386,0.121V63.886z M64.757,63.718l-0.386-0.121v-1.508l0.386,0.121V63.718z M64.37,50.426l0.386,0.121v1.508   l-0.386-0.121V50.426z M64.908,50.595l0.386,0.121v1.508l-0.386-0.121V50.595z M64.908,50.437v-1.508l0.386,0.121v1.508   L64.908,50.437z M64.908,48.771v-1.508l0.386,0.121v1.508L64.908,48.771z M64.908,47.105v-1.508l0.386,0.121v1.508L64.908,47.105z    M64.908,45.439v-1.508l0.386,0.121v1.508L64.908,45.439z M64.908,43.773v-1.508l0.386,0.121v1.508L64.908,43.773z M64.908,42.107   v-1.508l0.386,0.121v1.508L64.908,42.107z M65.294,40.562l-0.386-0.121v-1.508l0.386,0.121V40.562z M64.757,40.394l-0.386-0.121   v-1.508l0.386,0.121V40.394z M63.842,40.194h-2.979v-1.515h2.979V40.194z M60.712,40.194h-2.563v-1.515h2.563V40.194z    M57.621,40.321l-1.053,0.548v-1.496l1.053-0.548V40.321z M56.417,40.948l-1.242,0.646v-1.496l1.242-0.646V40.948z M55.024,41.673   l-1.241,0.646v-1.496l1.241-0.646V41.673z M55.024,41.843v1.496l-1.241,0.646v-1.496L55.024,41.843z M55.024,43.509v1.495   l-1.241,0.646v-1.495L55.024,43.509z M55.024,45.175v1.496l-1.241,0.646v-1.496L55.024,45.175z M55.024,46.841v1.496l-1.241,0.646   v-1.496L55.024,46.841z M55.024,48.507v1.496l-1.241,0.646v-1.496L55.024,48.507z M55.024,50.173v1.495l-1.241,0.646v-1.495   L55.024,50.173z M55.024,51.839v1.496l-1.241,0.646v-1.496L55.024,51.839z M55.024,53.505v1.496l-1.241,0.646v-1.496L55.024,53.505   z M55.024,55.171v1.496l-1.241,0.646v-1.496L55.024,55.171z M55.024,56.837v1.495l-1.241,0.646v-1.495L55.024,56.837z    M55.024,58.503v1.496l-1.241,0.646v-1.496L55.024,58.503z M55.175,58.425l1.242-0.646v1.496l-1.242,0.646V58.425z M56.568,57.7   l1.053-0.548v1.496l-1.053,0.548V57.7z M57.621,58.818v1.496l-1.053,0.548v-1.496L57.621,58.818z M57.621,60.484v1.496   l-1.053,0.548v-1.496L57.621,60.484z M57.621,62.15v1.495l-1.053,0.548v-1.495L57.621,62.15z M57.621,63.816v1.496l-1.053,0.548   v-1.496L57.621,63.816z M57.621,65.482v1.496l-1.053,0.548V66.03L57.621,65.482z M57.621,67.148v1.496l-1.053,0.548v-1.496   L57.621,67.148z M57.621,68.814v1.495l-1.053,0.548v-1.495L57.621,68.814z M57.621,70.48v1.496l-1.053,0.548v-1.496L57.621,70.48z    M57.621,72.146v1.496l-1.053,0.548v-1.496L57.621,72.146z M57.621,73.812v1.496l-1.053,0.548V74.36L57.621,73.812z M57.621,75.478   v1.495l-1.053,0.548v-1.495L57.621,75.478z M60.712,80.329v1.515h-2.563v-1.515H60.712z M60.863,80.329h2.979v1.515h-2.979V80.329z    M64.37,80.415l0.386,0.121v1.508l-0.386-0.121V80.415z M64.908,80.583l0.386,0.121v1.508l-0.386-0.121V80.583z M64.908,80.426   v-1.508l0.386,0.121v1.508L64.908,80.426z M64.908,78.759v-1.508l0.386,0.121v1.508L64.908,78.759z M64.908,77.093v-1.508   l0.386,0.121v1.508L64.908,77.093z M64.908,75.427v-1.508l0.386,0.121v1.508L64.908,75.427z M65.916,70.357l-0.094,0.069v-1.479   l0.094-0.069V70.357z M65.916,68.691l-0.094,0.069V67.28l0.094-0.069V68.691z M65.916,67.025l-0.094,0.069v-1.479l0.094-0.069   V67.025z M65.916,65.359l-0.094,0.069v-1.479l0.094-0.069V65.359z M65.294,62.22l-0.386-0.121v-1.508l0.386,0.121V62.22z    M64.757,62.052l-0.386-0.121v-1.508l0.386,0.121V62.052z M64.37,60.265v-1.508l0.386,0.121v1.508L64.37,60.265z M64.37,58.599   v-1.508l0.386,0.121v1.508L64.37,58.599z M64.37,56.933v-1.508l0.386,0.121v1.508L64.37,56.933z M64.37,55.267v-1.508l0.386,0.121   v1.508L64.37,55.267z M64.37,53.601v-1.508l0.386,0.121v1.508L64.37,53.601z M64.908,52.261l0.386,0.121v1.508l-0.386-0.121V52.261   z M65.294,38.896l-0.386-0.121v-1.508l0.386,0.121V38.896z M64.757,38.728l-0.386-0.121v-1.508l0.386,0.121V38.728z M63.842,38.527   h-2.979v-1.515h2.979V38.527z M60.712,38.527h-2.563v-1.515h2.563V38.527z M57.621,38.655l-1.053,0.548v-1.496l1.053-0.548V38.655z    M56.417,39.282l-1.242,0.646v-1.496l1.242-0.646V39.282z M55.024,40.007l-1.241,0.646v-1.496l1.241-0.646V40.007z M53.631,40.731   l-1.242,0.646v-1.496l1.242-0.646V40.731z M53.631,40.902v1.496l-1.242,0.646v-1.496L53.631,40.902z M53.631,42.568v1.496   L52.39,44.71v-1.495L53.631,42.568z M53.631,44.234v1.495l-1.242,0.646V44.88L53.631,44.234z M53.631,45.9v1.496l-1.242,0.646   v-1.496L53.631,45.9z M53.631,47.566v1.496l-1.242,0.646v-1.496L53.631,47.566z M53.631,49.232v1.496l-1.242,0.646v-1.495   L53.631,49.232z M53.631,50.898v1.495L52.39,53.04v-1.496L53.631,50.898z M53.631,52.564v1.496l-1.242,0.646V53.21L53.631,52.564z    M53.631,54.23v1.496l-1.242,0.646v-1.496L53.631,54.23z M53.631,55.896v1.496l-1.242,0.646v-1.495L53.631,55.896z M53.631,57.562   v1.495l-1.242,0.646v-1.496L53.631,57.562z M53.631,59.228v1.496L52.39,61.37v-1.496L53.631,59.228z M53.631,60.894v1.496   l-1.242,0.646v-1.496L53.631,60.894z M53.782,60.816l1.241-0.646v1.496l-1.241,0.646V60.816z M55.175,60.091l1.242-0.646v1.496   l-1.242,0.646V60.091z M56.417,61.111v1.496l-1.242,0.646v-1.496L56.417,61.111z M56.417,62.777v1.495l-1.242,0.646v-1.495   L56.417,62.777z M56.417,64.442v1.496l-1.242,0.646v-1.496L56.417,64.442z M56.417,66.109v1.496l-1.242,0.646v-1.496L56.417,66.109   z M56.417,67.775v1.496l-1.242,0.646v-1.496L56.417,67.775z M56.417,69.441v1.495l-1.242,0.646v-1.495L56.417,69.441z    M56.417,71.107v1.496l-1.242,0.646v-1.496L56.417,71.107z M56.417,72.773v1.496l-1.242,0.646v-1.496L56.417,72.773z    M56.417,74.439v1.496l-1.242,0.646v-1.496L56.417,74.439z M56.417,76.105V77.6l-1.242,0.646v-1.495L56.417,76.105z M55.024,78.325   l-1.241,0.646v-1.495l1.241-0.646V78.325z M53.631,79.05l-1.242,0.646v-1.496l1.242-0.646V79.05z M53.631,79.22v1.496l-1.242,0.646   v-1.496L53.631,79.22z M52.239,81.441l-1.241,0.646v-1.496l1.241-0.646V81.441z M52.239,81.611v1.496l-1.241,0.646v-1.496   L52.239,81.611z M52.39,81.533l1.242-0.646v1.496l-1.242,0.646V81.533z M53.782,80.808l1.241-0.646v1.496l-1.241,0.646V80.808z    M55.175,80.083l1.242-0.646v1.496l-1.242,0.646V80.083z M56.568,79.358l1.053-0.548v1.496l-1.053,0.548V79.358z M58.149,81.995   h2.563v1.515h-2.563V81.995z M60.863,81.995h2.979v1.515h-2.979V81.995z M64.37,82.081l0.386,0.121v1.508l-0.386-0.121V82.081z    M64.908,82.249l0.386,0.121v1.508l-0.386-0.121V82.249z M65.916,82.019l-0.094,0.069v-1.479l0.094-0.069V82.019z M65.916,73.689   l-0.094,0.069v-1.479l0.094-0.069V73.689z M66.444,70.333h1.682v1.515h-1.682V70.333z M66.444,68.516v-1.515h1.682v1.515H66.444z    M66.444,66.85v-1.515h1.682v1.515H66.444z M66.444,65.184v-1.515h1.682v1.515H66.444z M65.916,63.693l-0.094,0.069v-1.479   l0.094-0.069V63.693z M64.908,60.433v-1.508l0.386,0.121v1.508L64.908,60.433z M64.908,58.767v-1.508l0.386,0.121v1.508   L64.908,58.767z M64.908,57.101v-1.508l0.386,0.121v1.508L64.908,57.101z M64.908,55.435v-1.508l0.386,0.121v1.508L64.908,55.435z    M65.916,52.031l-0.094,0.069V50.62l0.094-0.069V52.031z M65.916,50.365l-0.094,0.069v-1.479l0.094-0.069V50.365z M65.916,48.699   l-0.094,0.069v-1.479l0.094-0.069V48.699z M65.916,47.033l-0.094,0.069v-1.479l0.094-0.069V47.033z M65.916,45.367l-0.094,0.069   v-1.479l0.094-0.069V45.367z M65.916,43.701l-0.094,0.069V42.29l0.094-0.069V43.701z M65.916,42.035l-0.094,0.069v-1.479   l0.094-0.069V42.035z M65.916,40.369l-0.094,0.069v-1.479l0.094-0.069V40.369z M65.916,38.703l-0.094,0.069v-1.479l0.094-0.069   V38.703z M65.916,37.036l-0.094,0.069v-1.479l0.094-0.069V37.036z M65.294,37.23l-0.386-0.121v-1.508l0.386,0.121V37.23z    M64.757,37.062l-0.386-0.121v-1.508l0.386,0.121V37.062z M63.842,36.861h-2.979v-1.515h2.979V36.861z M60.712,36.861h-2.563   v-1.515h2.563V36.861z M57.621,36.989l-1.053,0.548v-1.495l1.053-0.548V36.989z M56.417,37.616l-1.242,0.646v-1.495l1.242-0.646   V37.616z M55.024,38.341l-1.241,0.646v-1.495l1.241-0.646V38.341z M53.631,39.065l-1.242,0.646v-1.496l1.242-0.646V39.065z    M52.239,39.79l-1.241,0.646v-1.496l1.241-0.646V39.79z M52.239,39.961v1.496l-1.241,0.646v-1.496L52.239,39.961z M52.239,41.627   v1.496l-1.241,0.646v-1.496L52.239,41.627z M52.239,43.293v1.495l-1.241,0.646v-1.495L52.239,43.293z M52.239,44.959v1.496   l-1.241,0.646v-1.496L52.239,44.959z M52.239,46.625v1.496l-1.241,0.646v-1.496L52.239,46.625z M52.239,48.291v1.496l-1.241,0.646   v-1.496L52.239,48.291z M52.239,49.957v1.495l-1.241,0.646v-1.495L52.239,49.957z M52.239,51.623v1.496l-1.241,0.646v-1.496   L52.239,51.623z M52.239,53.289v1.496l-1.241,0.646v-1.496L52.239,53.289z M52.239,54.955v1.496l-1.241,0.646v-1.496L52.239,54.955   z M52.239,56.621v1.495l-1.241,0.646v-1.495L52.239,56.621z M52.239,58.287v1.496l-1.241,0.646v-1.496L52.239,58.287z    M52.239,59.953v1.496l-1.241,0.646v-1.496L52.239,59.953z M52.239,61.619v1.496l-1.241,0.646v-1.496L52.239,61.619z    M52.239,63.285v1.495l-1.241,0.646v-1.495L52.239,63.285z M52.39,63.207l1.242-0.646v1.496l-1.242,0.646V63.207z M53.782,62.482   l1.241-0.646v1.496l-1.241,0.646V62.482z M55.024,63.502v1.495l-1.241,0.646v-1.495L55.024,63.502z M55.024,65.167v1.496   l-1.241,0.646v-1.496L55.024,65.167z M55.024,66.833v1.496l-1.241,0.646V67.48L55.024,66.833z M55.024,68.5v1.496l-1.241,0.646   v-1.496L55.024,68.5z M55.024,70.166v1.495l-1.241,0.646v-1.495L55.024,70.166z M55.024,71.831v1.496l-1.241,0.646v-1.496   L55.024,71.831z M55.024,73.498v1.496l-1.241,0.646v-1.496L55.024,73.498z M55.024,75.164v1.496l-1.241,0.646V75.81L55.024,75.164z    M53.631,77.384L52.39,78.03v-1.495l1.242-0.646V77.384z M52.239,78.109l-1.241,0.646V77.26l1.241-0.646V78.109z M52.239,78.279   v1.496l-1.241,0.646v-1.496L52.239,78.279z M50.846,80.5l-1.242,0.646V79.65l1.242-0.646V80.5z M50.846,80.67v1.496l-1.242,0.646   v-1.496L50.846,80.67z M50.846,82.336v1.496l-1.242,0.646v-1.496L50.846,82.336z M50.846,84.002v1.495l-1.242,0.646v-1.495   L50.846,84.002z M50.997,83.924l1.241-0.646v1.495l-1.241,0.646V83.924z M52.39,83.199l1.242-0.646v1.496l-1.242,0.646V83.199z    M53.782,82.474l1.241-0.646v1.496l-1.241,0.646V82.474z M55.175,81.749l1.242-0.646v1.496l-1.242,0.646V81.749z M56.568,81.024   l1.053-0.548v1.496l-1.053,0.548V81.024z M57.621,82.142v1.495l-1.053,0.548V82.69L57.621,82.142z M57.621,83.808v1.496   l-1.053,0.548v-1.496L57.621,83.808z M58.149,83.661h2.563v1.515h-2.563V83.661z M60.863,83.661h2.979v1.515h-2.979V83.661z    M64.37,83.747l0.386,0.121v1.508l-0.386-0.121V83.747z M64.908,83.915l0.386,0.121v1.508l-0.386-0.121V83.915z M66.444,81.995   h1.682v1.515h-1.682V81.995z M66.444,81.844v-1.515h1.682v1.515H66.444z M65.916,80.353l-0.094,0.069v-1.479l0.094-0.069V80.353z    M65.916,78.687l-0.094,0.069v-1.479l0.094-0.069V78.687z M65.916,77.021l-0.094,0.069V75.61l0.094-0.069V77.021z M66.444,73.665   h1.682v1.515h-1.682V73.665z M66.444,73.514v-1.515h1.682v1.515H66.444z M68.277,71.999h1.787v1.515h-1.787V71.999z M70.064,71.848   h-1.787v-1.515h1.787V71.848z M70.064,68.516h-1.787v-1.515h1.787V68.516z M70.064,66.85h-1.787v-1.515h1.787V66.85z    M70.064,65.184h-1.787v-1.515h1.787V65.184z M70.064,63.518h-1.787v-1.515h1.787V63.518z M68.126,63.518h-1.682v-1.515h1.682   V63.518z M65.916,62.027l-0.094,0.069v-1.479l0.094-0.069V62.027z M66.444,52.007h1.682v1.515h-1.682V52.007z M66.444,51.856V50.34   h1.682v1.515H66.444z M66.444,50.189v-1.515h1.682v1.515H66.444z M66.444,48.524v-1.515h1.682v1.515H66.444z M66.444,46.858v-1.515   h1.682v1.515H66.444z M66.444,45.192v-1.515h1.682v1.515H66.444z M66.444,43.525v-1.515h1.682v1.515H66.444z M66.444,41.86v-1.515   h1.682v1.515H66.444z M66.444,40.194v-1.515h1.682v1.515H66.444z M66.444,38.527v-1.515h1.682v1.515H66.444z M66.444,36.861v-1.515   h1.682v1.515H66.444z M66.444,35.196V33.68h1.682v1.515H66.444z M65.916,35.371l-0.094,0.069V33.96l0.094-0.069V35.371z    M65.294,35.564l-0.386-0.121v-1.508l0.386,0.121V35.564z M64.757,35.396l-0.386-0.121v-1.508l0.386,0.121V35.396z M63.842,35.196   h-2.979V33.68h2.979V35.196z M60.712,35.196h-2.563V33.68h2.563V35.196z M57.621,35.323l-1.053,0.548v-1.496l1.053-0.548V35.323z    M56.417,35.95l-1.242,0.646v-1.496l1.242-0.646V35.95z M55.024,36.675l-1.241,0.646v-1.496l1.241-0.646V36.675z M53.631,37.399   l-1.242,0.646V36.55l1.242-0.646V37.399z M52.239,38.124l-1.241,0.646v-1.495l1.241-0.646V38.124z M50.846,38.849l-1.242,0.646V38   l1.242-0.646V38.849z M50.846,39.019v1.496l-1.242,0.646v-1.496L50.846,39.019z M50.846,40.685v1.496l-1.242,0.646v-1.496   L50.846,40.685z M50.846,42.352v1.496l-1.242,0.646v-1.496L50.846,42.352z M50.846,44.018v1.495l-1.242,0.646v-1.495L50.846,44.018   z M50.846,45.684v1.496l-1.242,0.646V46.33L50.846,45.684z M50.846,47.35v1.496l-1.242,0.646v-1.496L50.846,47.35z M50.846,49.016   v1.496l-1.242,0.646v-1.496L50.846,49.016z M50.846,50.682v1.495l-1.242,0.646v-1.495L50.846,50.682z M50.846,52.348v1.496   l-1.242,0.646v-1.496L50.846,52.348z M50.846,54.014v1.496l-1.242,0.646V54.66L50.846,54.014z M50.846,55.68v1.496l-1.242,0.646   v-1.496L50.846,55.68z M50.846,57.346v1.495l-1.242,0.646v-1.495L50.846,57.346z M50.846,59.012v1.496l-1.242,0.646v-1.496   L50.846,59.012z M50.846,60.678v1.496l-1.242,0.646v-1.496L50.846,60.678z M50.846,62.344v1.496l-1.242,0.646V62.99L50.846,62.344z    M50.846,64.01v1.495l-1.242,0.646v-1.495L50.846,64.01z M50.846,65.676v1.496l-1.242,0.646v-1.496L50.846,65.676z M50.997,65.597   l1.241-0.646v1.496l-1.241,0.646V65.597z M52.39,64.873l1.242-0.646v1.495l-1.242,0.646V64.873z M53.631,65.892v1.496l-1.242,0.646   v-1.496L53.631,65.892z M53.631,67.558v1.496L52.39,69.7v-1.496L53.631,67.558z M53.631,69.224v1.496l-1.242,0.646v-1.495   L53.631,69.224z M53.631,70.89v1.495l-1.242,0.646v-1.496L53.631,70.89z M53.631,72.556v1.496l-1.242,0.646v-1.496L53.631,72.556z    M53.631,74.222v1.496l-1.242,0.646v-1.496L53.631,74.222z M52.239,76.443l-1.241,0.646v-1.496l1.241-0.646V76.443z M50.846,77.168   l-1.242,0.646v-1.496l1.242-0.646V77.168z M50.846,77.338v1.495l-1.242,0.646v-1.495L50.846,77.338z M48.4,80.277l1.053-0.548   v1.496L48.4,81.772V80.277z M48.4,81.943l1.053-0.548v1.496L48.4,83.439V81.943z M48.4,83.609l1.053-0.548v1.496L48.4,85.105   V83.609z M48.4,85.275l1.053-0.548v1.495L48.4,86.77V85.275z M48.4,86.941l1.053-0.548v1.496L48.4,88.437V86.941z M49.604,86.314   l1.242-0.646v1.496l-1.242,0.646V86.314z M50.997,85.589l1.241-0.646v1.496l-1.241,0.646V85.589z M52.39,84.865l1.242-0.646v1.495   L52.39,86.36V84.865z M53.782,84.14l1.241-0.646v1.495l-1.241,0.646V84.14z M55.175,83.415l1.242-0.646v1.495l-1.242,0.646V83.415z    M56.417,84.435v1.496l-1.242,0.646v-1.496L56.417,84.435z M56.417,86.101v1.496l-1.242,0.646v-1.496L56.417,86.101z    M56.568,86.022l1.053-0.548v1.496l-1.053,0.548V86.022z M58.149,85.327h2.563v1.515h-2.563V85.327z M60.863,85.327h2.979v1.515   h-2.979V85.327z M64.37,85.413l0.386,0.121v1.508l-0.386-0.121V85.413z M64.908,85.581l0.386,0.121v1.508l-0.386-0.121V85.581z    M66.444,83.661h1.682v1.515h-1.682V83.661z M68.277,83.661h1.787v1.515h-1.787V83.661z M68.277,83.51v-1.515h1.787v1.515H68.277z    M68.277,81.844v-1.515h1.787v1.515H68.277z M68.277,80.178v-1.515h1.787v1.515H68.277z M68.126,80.178h-1.682v-1.515h1.682V80.178   z M66.444,78.512v-1.515h1.682v1.515H66.444z M66.444,76.846v-1.515h1.682v1.515H66.444z M68.277,75.331h1.787v1.515h-1.787V75.331   z M68.277,75.18v-1.515h1.787v1.515H68.277z M70.592,65.817l8.335-9.07v0.986l-8.335,9.94V65.817z M70.064,61.852h-1.787v-1.515   h1.787V61.852z M68.126,61.852h-1.682v-1.515h1.682V61.852z M65.916,60.361l-0.094,0.069V58.95l0.094-0.069V60.361z M65.916,58.695   l-0.094,0.069v-1.479l0.094-0.069V58.695z M65.916,57.029l-0.094,0.069v-1.479l0.094-0.069V57.029z M66.444,53.673h1.682v1.515   h-1.682V53.673z M68.277,53.673h1.787v1.515h-1.787V53.673z M68.277,53.522v-1.515h1.787v1.515H68.277z M68.277,51.856V50.34h1.787   v1.515H68.277z M68.277,50.189v-1.515h1.787v1.515H68.277z M68.277,48.524v-1.515h1.787v1.515H68.277z M68.277,46.858v-1.515h1.787   v1.515H68.277z M68.277,45.192v-1.515h1.787v1.515H68.277z M68.277,43.525v-1.515h1.787v1.515H68.277z M68.277,41.86v-1.515h1.787   v1.515H68.277z M68.277,40.194v-1.515h1.787v1.515H68.277z M68.277,38.527v-1.515h1.787v1.515H68.277z M68.277,36.861v-1.515h1.787   v1.515H68.277z M68.277,35.196V33.68h1.787v1.515H68.277z M68.277,33.529v-1.515h1.787v1.515H68.277z M68.126,33.529h-1.682v-1.515   h1.682V33.529z M65.916,33.705l-0.094,0.069v-1.479l0.094-0.069V33.705z M65.294,33.898l-0.386-0.121v-1.508l0.386,0.121V33.898z    M64.757,33.73l-0.386-0.121V32.1l0.386,0.121V33.73z M63.842,33.529h-2.979v-1.515h2.979V33.529z M60.712,33.529h-2.563v-1.515   h2.563V33.529z M57.621,33.657l-1.053,0.548V32.71l1.053-0.548V33.657z M56.417,34.284l-1.242,0.646v-1.496l1.242-0.646V34.284z    M55.024,35.009l-1.241,0.646v-1.496l1.241-0.646V35.009z M53.631,35.733L52.39,36.38v-1.496l1.242-0.646V35.733z M52.239,36.458   l-1.241,0.646v-1.496l1.241-0.646V36.458z M50.846,37.183l-1.242,0.646v-1.496l1.242-0.646V37.183z M48.4,38.627l1.053-0.548v1.495   L48.4,40.122V38.627z M48.4,40.292l1.053-0.548v1.496L48.4,41.788V40.292z M48.4,41.958l1.053-0.548v1.496L48.4,43.454V41.958z    M48.4,43.625l1.053-0.548v1.496L48.4,45.12V43.625z M48.4,45.291l1.053-0.548v1.495L48.4,46.786V45.291z M48.4,46.956l1.053-0.548   v1.496L48.4,48.452V46.956z M48.4,48.623l1.053-0.548v1.496L48.4,50.118V48.623z M48.4,50.289l1.053-0.548v1.496L48.4,51.784   V50.289z M48.4,51.955l1.053-0.548v1.495L48.4,53.45V51.955z M48.4,53.621l1.053-0.548v1.496L48.4,55.116V53.621z M48.4,55.287   l1.053-0.548v1.496L48.4,56.782V55.287z M48.4,56.953l1.053-0.548V57.9L48.4,58.448V56.953z M48.4,58.619l1.053-0.548v1.495   L48.4,60.114V58.619z M48.4,60.285l1.053-0.548v1.496L48.4,61.78V60.285z M48.4,61.951l1.053-0.548v1.496L48.4,63.446V61.951z    M48.4,63.617l1.053-0.548v1.496L48.4,65.112V63.617z M48.4,65.283l1.053-0.548v1.495L48.4,66.778V65.283z M48.4,66.949   l1.053-0.548v1.496L48.4,68.444V66.949z M48.4,68.615l1.053-0.548v1.496L48.4,70.11V68.615z M49.604,67.988l1.242-0.646v1.496   l-1.242,0.646V67.988z M50.997,67.263l1.241-0.646v1.496l-1.241,0.646V67.263z M52.239,68.283v1.496l-1.241,0.646v-1.496   L52.239,68.283z M52.239,69.949v1.495l-1.241,0.646v-1.495L52.239,69.949z M52.239,71.615v1.496l-1.241,0.646v-1.496L52.239,71.615   z M52.239,73.281v1.496l-1.241,0.646v-1.496L52.239,73.281z M50.846,75.502l-1.242,0.646v-1.496l1.242-0.646V75.502z    M49.453,76.397v1.496L48.4,78.441v-1.496L49.453,76.397z M48.4,88.607l1.053-0.548v1.496L48.4,90.103V88.607z M49.604,87.98   l1.242-0.646v1.496l-1.242,0.646V87.98z M50.997,87.256l1.241-0.646v1.496l-1.241,0.646V87.256z M52.39,86.531l1.242-0.646v1.496   l-1.242,0.646V86.531z M53.782,85.806l1.241-0.646v1.496l-1.241,0.646V85.806z M55.024,86.826v1.496l-1.241,0.646v-1.496   L55.024,86.826z M55.024,88.492v1.496l-1.241,0.646v-1.496L55.024,88.492z M55.175,88.413l1.242-0.646v1.496l-1.242,0.646V88.413z    M56.568,87.688l1.053-0.548v1.496l-1.053,0.548V87.688z M58.149,86.993h2.563v1.515h-2.563V86.993z M60.863,86.993h2.979v1.515   h-2.979V86.993z M64.37,87.079l0.386,0.121v1.508l-0.386-0.121V87.079z M64.908,87.247l0.386,0.121v1.508l-0.386-0.121V87.247z    M65.916,88.683l-0.094,0.069v-1.479l0.094-0.069V88.683z M66.444,85.327h1.682v1.515h-1.682V85.327z M68.277,85.327h1.787v1.515   h-1.787V85.327z M68.277,78.512v-1.515h1.787v1.515H68.277z M78.927,60.182l-8.335,12.984V70.36l8.335-11.158V60.182z    M78.927,58.95l-8.335,11.158v-2.2l8.335-9.94V58.95z M78.927,56.213c-0.024,0.04-0.042,0.084-0.042,0.135s0.018,0.095,0.042,0.135   v0.041l-8.335,9.07v-1.641l8.335-8.418V56.213z M78.927,54.119l-8.335,7.91v-1.401l8.335-7.504V54.119z M70.064,60.186h-1.787   v-1.515h1.787V60.186z M68.126,60.186h-1.682v-1.515h1.682V60.186z M66.444,58.52v-1.515h1.682v1.515H66.444z M66.444,56.854   v-1.515h1.682v1.515H66.444z M68.277,55.339h1.787v1.515h-1.787V55.339z M70.064,31.863h-1.787v-1.515h1.787V31.863z    M68.126,31.863h-1.682v-1.515h1.682V31.863z M65.916,32.038l-0.094,0.069v-1.479l0.094-0.069V32.038z M65.294,32.232l-0.386-0.121   v-1.508l0.386,0.121V32.232z M64.757,32.064l-0.386-0.121v-1.508l0.386,0.121V32.064z M63.842,31.863h-2.979v-1.515h2.979V31.863z    M60.712,31.863h-2.563v-1.515h2.563V31.863z M57.621,31.991l-1.053,0.548v-1.496l1.053-0.548V31.991z M56.417,32.618l-1.242,0.646   v-1.496l1.242-0.646V32.618z M55.024,33.343l-1.241,0.646v-1.496l1.241-0.646V33.343z M53.631,34.067l-1.242,0.646v-1.496   l1.242-0.646V34.067z M52.239,34.792l-1.241,0.646v-1.496l1.241-0.646V34.792z M50.846,35.517l-1.242,0.646v-1.496l1.242-0.646   V35.517z M49.453,36.242L48.4,36.79v-1.496l1.053-0.548V36.242z M48.4,70.281l1.053-0.548v1.496L48.4,71.777V70.281z    M49.604,69.654l1.242-0.646v1.496l-1.242,0.646V69.654z M50.846,70.674v1.495l-1.242,0.646V71.32L50.846,70.674z M50.846,72.34   v1.496l-1.242,0.646v-1.496L50.846,72.34z M48.4,90.273l1.053-0.548v1.496L48.4,91.769V90.273z M49.604,89.647L50.846,89v1.496   l-1.242,0.646V89.647z M50.997,88.922l1.241-0.646v1.496l-1.241,0.646V88.922z M52.39,88.197l1.242-0.646v1.496l-1.242,0.646   V88.197z M53.631,89.217v1.496l-1.242,0.646v-1.495L53.631,89.217z M53.631,90.883v1.495l-1.242,0.646v-1.495L53.631,90.883z    M53.782,90.804l1.241-0.646v1.495l-1.241,0.646V90.804z M55.175,90.079l1.242-0.646v1.495l-1.242,0.646V90.079z M56.568,91.02   l1.053-0.548v1.496l-1.053,0.548V91.02z M58.149,90.325h2.563v1.515h-2.563V90.325z M58.149,90.174v-1.515h2.563v1.515H58.149z    M60.863,88.659h2.979v1.515h-2.979V88.659z M64.37,88.745l0.386,0.121v1.508l-0.386-0.121V88.745z M64.908,88.913l0.386,0.121   v1.508l-0.386-0.121V88.913z M66.444,88.508v-1.515h1.682v1.515H66.444z M68.277,86.993h1.787v1.515h-1.787V86.993z M78.927,74.93   c-1.443-0.075-2.892-0.145-4.341-0.209l4.341-11.519V74.93z M78.927,52.92l-8.335,7.504v-1.329l8.335-7.172V52.92z M70.064,58.52   h-1.787v-1.515h1.787V58.52z M70.064,30.197h-1.787v-1.515h1.787V30.197z M68.126,30.197h-1.682v-1.515h1.682V30.197z    M65.916,30.372l-0.094,0.069v-1.479l0.094-0.069V30.372z M65.294,30.566l-0.386-0.121v-1.508l0.386,0.121V30.566z M64.757,30.397   l-0.386-0.121v-1.508l0.386,0.121V30.397z M63.842,30.197h-2.979v-1.515h2.979V30.197z M60.712,30.197h-2.563v-1.515h2.563V30.197z    M57.621,30.325l-1.053,0.548v-1.495l1.053-0.548V30.325z M56.417,30.952l-1.242,0.646v-1.495l1.242-0.646V30.952z M55.024,31.676   l-1.241,0.646v-1.495l1.241-0.646V31.676z M53.631,32.401l-1.242,0.646v-1.496l1.242-0.646V32.401z M52.239,33.126l-1.241,0.646   v-1.496l1.241-0.646V33.126z M50.846,33.851l-1.242,0.646v-1.496l1.242-0.646V33.851z M49.453,34.576L48.4,35.124v-1.496   l1.053-0.548V34.576z M49.453,71.399v1.495L48.4,73.442v-1.495L49.453,71.399z M47.872,76.405   c-1.292,0.021-2.595,0.061-3.886,0.121v-1.789c1.295-0.014,2.591-0.023,3.886-0.029V76.405z M31.153,89.192v-0.918h1.254v1.254   h-0.514C31.647,89.414,31.397,89.31,31.153,89.192z M22.896,79.208h-1.822v-3.751c2.766-0.144,5.566-0.269,8.335-0.371v2.923   C27.236,78.353,25.047,78.755,22.896,79.208z M25.573,74.712l-4.499-11.94V61.77l6.684,12.854   C27.029,74.653,26.303,74.68,25.573,74.712z M21.073,54.327l8.335,7.91v1.5l-8.335-8.418V54.327z M42.242,89.528h-1.254v-1.254   h1.254V89.528z M42.393,88.274h1.065v1.254h-1.065V88.274z M40.988,88.123v-1.065h1.254v1.065H40.988z M40.837,65.643h-1.254   v-1.254h1.254V65.643z M40.988,64.389h1.254v1.254h-1.254V64.389z M40.837,73.884h-1.254v-1.065h1.254V73.884z M40.988,72.819   h1.254v1.065h-1.254V72.819z M29.936,75.629h1.065v1.254h-1.065V75.629z M31.153,75.629h1.254v1.254h-1.254V75.629z M29.936,64.389   h1.065v1.254h-1.065V64.389z M31.153,64.389h1.254v1.254h-1.254V64.389z M40.837,57.213h-1.254v-1.254h1.254V57.213z    M40.988,55.959h1.254v1.254h-1.254V55.959z M39.432,57.213h-1.254v-1.254h1.254V57.213z M29.936,71.414h1.065v1.254h-1.065V71.414   z M31.153,71.414h1.254v1.254h-1.254V71.414z M29.936,68.604h1.065v1.254h-1.065V68.604z M31.153,68.604h1.254v1.254h-1.254V68.604   z M36.622,78.439v1.254h-1.254v-1.254H36.622z M35.368,78.288v-1.254h1.254v1.254H35.368z M36.622,79.844v1.254h-1.254v-1.254   H36.622z M36.773,79.844h1.254v1.254h-1.254V79.844z M36.773,79.693v-1.254h1.254v1.254H36.773z M36.773,78.288v-1.254h1.254v1.254   H36.773z M36.773,76.883v-1.254h1.254v1.254H36.773z M36.622,76.883h-1.254v-1.254h1.254V76.883z M35.368,75.478v-1.065h1.254   v1.065H35.368z M35.368,73.884v-1.065h1.254v1.065H35.368z M33.963,70.009h1.254v1.254h-1.254V70.009z M33.812,71.263h-1.254   v-1.254h1.254V71.263z M35.217,67.199v1.254h-1.254v-1.254H35.217z M33.963,67.048v-1.254h1.254v1.254H33.963z M35.217,68.604   v1.254h-1.254v-1.254H35.217z M35.217,71.414v1.254h-1.254v-1.254H35.217z M35.217,72.819v1.065h-1.254v-1.065H35.217z    M35.368,72.668v-1.254h1.254v1.254H35.368z M35.368,71.263v-1.254h1.254v1.254H35.368z M35.368,69.858v-1.254h1.254v1.254H35.368z    M35.368,68.453v-1.254h1.254v1.254H35.368z M35.368,67.048v-1.254h1.254v1.254H35.368z M35.368,65.643v-1.254h1.254v1.254H35.368z    M35.217,65.643h-1.254v-1.254h1.254V65.643z M33.812,65.643h-1.254v-1.254h1.254V65.643z M33.812,65.794v1.254h-1.254v-1.254   H33.812z M33.812,67.199v1.254h-1.254v-1.254H33.812z M33.812,68.604v1.254h-1.254v-1.254H33.812z M32.407,70.009v1.254h-1.254   v-1.254H32.407z M32.558,71.414h1.254v1.254h-1.254V71.414z M33.812,72.819v1.065h-1.254v-1.065H33.812z M33.812,74.413v1.065   h-1.254v-1.065H33.812z M33.963,74.413h1.254v1.065h-1.254V74.413z M35.217,75.629v1.254h-1.254v-1.254H35.217z M35.217,77.034   v1.254h-1.254v-1.254H35.217z M35.217,78.439v1.254h-1.254v-1.254H35.217z M35.217,79.844v1.254h-1.254v-1.254H35.217z    M35.217,81.249v1.254h-1.254v-1.254H35.217z M35.368,81.249h1.254v1.254h-1.254V81.249z M36.773,81.249h1.254v1.254h-1.254V81.249   z M38.027,82.654v1.254h-1.254v-1.254H38.027z M38.178,82.654h1.254v1.254h-1.254V82.654z M38.178,82.503v-1.254h1.254v1.254   H38.178z M39.583,81.249h1.254v1.254h-1.254V81.249z M40.988,81.249h1.254v1.254h-1.254V81.249z M42.393,81.249h1.065v1.254h-1.065   V81.249z M42.393,81.098v-1.254h1.065v1.254H42.393z M42.242,81.098h-1.254v-1.254h1.254V81.098z M40.837,81.098h-1.254v-1.254   h1.254V81.098z M39.432,81.098h-1.254v-1.254h1.254V81.098z M38.178,79.693v-1.254h1.254v1.254H38.178z M38.178,78.288v-1.254   h1.254v1.254H38.178z M38.178,76.883v-1.254h1.254v1.254H38.178z M38.178,75.478v-1.065h1.254v1.065H38.178z M38.027,75.478h-1.254   v-1.065h1.254V75.478z M36.773,73.884v-1.065h1.254v1.065H36.773z M36.773,72.668v-1.254h1.254v1.254H36.773z M36.773,71.263   v-1.254h1.254v1.254H36.773z M36.773,69.858v-1.254h1.254v1.254H36.773z M36.773,68.453v-1.254h1.254v1.254H36.773z M36.773,67.048   v-1.254h1.254v1.254H36.773z M36.773,65.643v-1.254h1.254v1.254H36.773z M36.773,64.238v-1.254h1.254v1.254H36.773z M38.027,58.769   v1.254h-1.254v-1.254H38.027z M36.773,58.618v-1.254h1.254v1.254H36.773z M38.027,60.174v1.065h-1.254v-1.065H38.027z    M38.027,61.768v1.065h-1.254v-1.065H38.027z M38.178,62.984h1.254v1.254h-1.254V62.984z M38.178,62.833v-1.065h1.254v1.065H38.178   z M38.178,61.239v-1.065h1.254v1.065H38.178z M38.178,60.023v-1.254h1.254v1.254H38.178z M38.178,58.618v-1.254h1.254v1.254H38.178   z M38.027,57.213h-1.254v-1.254h1.254V57.213z M36.622,57.213h-1.254v-1.254h1.254V57.213z M36.622,57.364v1.254h-1.254v-1.254   H36.622z M36.622,58.769v1.254h-1.254v-1.254H36.622z M36.622,60.174v1.065h-1.254v-1.065H36.622z M36.622,61.768v1.065h-1.254   v-1.065H36.622z M36.622,62.984v1.254h-1.254v-1.254H36.622z M35.217,64.238h-1.254v-1.254h1.254V64.238z M33.812,64.238h-1.254   v-1.254h1.254V64.238z M32.407,64.238h-1.254v-1.254h1.254V64.238z M32.407,65.794v1.254h-1.254v-1.254H32.407z M32.407,67.199   v1.254h-1.254v-1.254H32.407z M31.002,68.453h-1.065v-1.254h1.065V68.453z M31.002,70.009v1.254h-1.065v-1.254H31.002z    M29.936,72.819h1.065v1.065h-1.065V72.819z M31.153,72.819h1.254v1.065h-1.254V72.819z M32.407,74.413v1.065h-1.254v-1.065H32.407   z M32.558,75.629h1.254v1.254h-1.254V75.629z M33.812,77.034v1.254h-1.254v-1.254H33.812z M33.812,78.439v1.254h-1.254v-1.254   H33.812z M33.812,79.844v1.254h-1.254v-1.254H33.812z M33.812,81.249v1.254h-1.254v-1.254H33.812z M32.407,82.503h-1.254v-1.254   h1.254V82.503z M31.002,82.503h-1.065v-1.254h1.065V82.503z M31.002,82.654v1.254h-1.065v-1.254H31.002z M31.153,82.654h1.254   v1.254h-1.254V82.654z M32.558,82.654h1.254v1.254h-1.254V82.654z M33.963,82.654h1.254v1.254h-1.254V82.654z M35.368,82.654h1.254   v1.254h-1.254V82.654z M36.622,84.059v1.254h-1.254v-1.254H36.622z M36.773,84.059h1.254v1.254h-1.254V84.059z M38.178,84.059   h1.254v1.254h-1.254V84.059z M39.432,85.464v1.065h-1.254v-1.065H39.432z M39.583,85.464h1.254v1.065h-1.254V85.464z    M39.583,85.313v-1.254h1.254v1.254H39.583z M39.583,83.908v-1.254h1.254v1.254H39.583z M40.988,82.654h1.254v1.254h-1.254V82.654z    M42.393,82.654h1.065v1.254h-1.065V82.654z M43.458,79.693h-1.065v-1.254h1.065V79.693z M42.242,79.693h-1.254v-1.254h1.254   V79.693z M40.837,79.693h-1.254v-1.254h1.254V79.693z M39.583,78.288v-1.254h1.254v1.254H39.583z M39.583,76.883v-1.254h1.254   v1.254H39.583z M39.583,75.478v-1.065h1.254v1.065H39.583z M39.432,73.884h-1.254v-1.065h1.254V73.884z M38.178,72.668v-1.254   h1.254v1.254H38.178z M38.178,71.263v-1.254h1.254v1.254H38.178z M38.178,69.858v-1.254h1.254v1.254H38.178z M38.178,68.453v-1.254   h1.254v1.254H38.178z M38.178,67.048v-1.254h1.254v1.254H38.178z M38.178,65.643v-1.254h1.254v1.254H38.178z M39.583,64.238v-1.254   h1.254v1.254H39.583z M39.583,62.833v-1.065h1.254v1.065H39.583z M39.583,61.239v-1.065h1.254v1.065H39.583z M39.583,60.023v-1.254   h1.254v1.254H39.583z M39.583,58.618v-1.254h1.254v1.254H39.583z M40.988,57.364h1.254v1.254h-1.254V57.364z M42.393,57.364h1.065   v1.254h-1.065V57.364z M42.393,57.213v-1.254h1.065v1.254H42.393z M42.393,55.808v-1.254h1.065v1.254H42.393z M42.242,55.808   h-1.254v-1.254h1.254V55.808z M40.837,55.808h-1.254v-1.254h1.254V55.808z M39.432,55.808h-1.254v-1.254h1.254V55.808z    M38.027,55.808h-1.254v-1.254h1.254V55.808z M36.622,55.808h-1.254v-1.254h1.254V55.808z M35.217,55.808h-1.254v-1.254h1.254   V55.808z M35.217,55.959v1.254h-1.254v-1.254H35.217z M35.217,57.364v1.254h-1.254v-1.254H35.217z M35.217,58.769v1.254h-1.254   v-1.254H35.217z M35.217,60.174v1.065h-1.254v-1.065H35.217z M35.217,61.768v1.065h-1.254v-1.065H35.217z M33.812,62.833h-1.254   v-1.065h1.254V62.833z M32.407,62.833h-1.254v-1.065h1.254V62.833z M31.002,62.833h-1.065v-1.065h1.065V62.833z M31.002,62.984   v1.254h-1.065v-1.254H31.002z M31.002,65.794v1.254h-1.065v-1.254H31.002z M29.936,74.413h1.065v1.065h-1.065V74.413z    M29.936,77.034h1.065v1.254h-1.065V77.034z M31.153,77.034h1.254v1.254h-1.254V77.034z M32.407,78.439v1.254h-1.254v-1.254H32.407   z M32.407,79.844v1.254h-1.254v-1.254H32.407z M31.002,81.098h-1.065v-1.254h1.065V81.098z M29.936,84.059h1.065v1.254h-1.065   V84.059z M31.153,84.059h1.254v1.254h-1.254V84.059z M32.558,84.059h1.254v1.254h-1.254V84.059z M33.963,84.059h1.254v1.254h-1.254   V84.059z M35.217,85.464v1.065h-1.254v-1.065H35.217z M35.368,85.464h1.254v1.065h-1.254V85.464z M36.773,85.464h1.254v1.065   h-1.254V85.464z M38.027,87.057v1.065h-1.254v-1.065H38.027z M38.178,87.057h1.254v1.065h-1.254V87.057z M39.583,87.057h1.254   v1.065h-1.254V87.057z M40.988,86.529v-1.065h1.254v1.065H40.988z M40.988,85.313v-1.254h1.254v1.254H40.988z M42.393,84.059h1.065   v1.254h-1.065V84.059z M42.393,78.288v-1.254h1.065v1.254H42.393z M42.242,78.288h-1.254v-1.254h1.254V78.288z M40.988,76.883   v-1.254h1.254v1.254H40.988z M40.988,75.478v-1.065h1.254v1.065H40.988z M42.393,74.413h1.065v1.065h-1.065V74.413z M42.393,73.884   v-1.065h1.065v1.065H42.393z M42.393,72.668v-1.254h1.065v1.254H42.393z M42.242,72.668h-1.254v-1.254h1.254V72.668z    M40.837,72.668h-1.254v-1.254h1.254V72.668z M39.583,71.263v-1.254h1.254v1.254H39.583z M39.583,69.858v-1.254h1.254v1.254H39.583   z M39.583,68.453v-1.254h1.254v1.254H39.583z M39.583,67.048v-1.254h1.254v1.254H39.583z M40.988,65.794h1.254v1.254h-1.254V65.794   z M42.393,65.794h1.065v1.254h-1.065V65.794z M42.393,65.643v-1.254h1.065v1.254H42.393z M42.393,64.238v-1.254h1.065v1.254H42.393   z M42.242,64.238h-1.254v-1.254h1.254V64.238z M40.988,62.833v-1.065h1.254v1.065H40.988z M40.988,61.239v-1.065h1.254v1.065   H40.988z M40.988,60.023v-1.254h1.254v1.254H40.988z M42.393,58.769h1.065v1.254h-1.065V58.769z M43.458,54.403h-1.065v-1.254   h1.065V54.403z M42.242,54.403h-1.254v-1.254h1.254V54.403z M40.837,54.403h-1.254v-1.254h1.254V54.403z M39.432,54.403h-1.254   v-1.254h1.254V54.403z M38.027,54.403h-1.254v-1.254h1.254V54.403z M36.773,52.998v-1.254h1.254v1.254H36.773z M36.622,52.998   h-1.254v-1.254h1.254V52.998z M36.622,53.149v1.254h-1.254v-1.254H36.622z M35.217,54.403h-1.254v-1.254h1.254V54.403z    M33.812,54.403h-1.254v-1.254h1.254V54.403z M32.407,54.403h-1.254v-1.254h1.254V54.403z M31.002,54.403h-1.065v-1.254h1.065   V54.403z M31.002,54.554v1.254h-1.065v-1.254H31.002z M31.153,54.554h1.254v1.254h-1.254V54.554z M32.558,54.554h1.254v1.254   h-1.254V54.554z M33.812,55.959v1.254h-1.254v-1.254H33.812z M33.812,57.364v1.254h-1.254v-1.254H33.812z M33.812,58.769v1.254   h-1.254v-1.254H33.812z M33.812,60.174v1.065h-1.254v-1.065H33.812z M32.407,61.239h-1.254v-1.065h1.254V61.239z M31.002,61.239   h-1.065v-1.065h1.065V61.239z M29.408,67.673l-8.335-9.94v-0.986l8.335,9.07V67.673z M29.408,67.908v2.2L21.073,58.95v-0.983   L29.408,67.908z M29.408,70.36v2.806l-8.335-12.984v-0.98L29.408,70.36z M27.924,74.617l-6.851-13.174v-0.981l8.335,12.984v1.111   C28.915,74.575,28.419,74.597,27.924,74.617z M31.002,78.439v1.254h-1.065v-1.254H31.002z M29.936,85.464h1.065v1.065h-1.065   V85.464z M31.153,85.464h1.254v1.065h-1.254V85.464z M32.558,85.464h1.254v1.065h-1.254V85.464z M33.812,87.057v1.065h-1.254   v-1.065H33.812z M33.963,87.057h1.254v1.065h-1.254V87.057z M35.368,87.057h1.254v1.065h-1.254V87.057z M36.622,88.274v1.254   h-1.254v-1.254H36.622z M36.773,88.274h1.254v1.254h-1.254V88.274z M38.178,88.274h1.254v1.254h-1.254V88.274z M39.583,88.274   h1.254v1.254h-1.254V88.274z M40.837,89.679v1.254h-1.254v-1.254H40.837z M40.988,89.679h1.254v1.254h-1.254V89.679z    M42.393,89.679h1.065v1.254h-1.065V89.679z M43.458,88.123h-1.065v-1.065h1.065V88.123z M42.393,86.529v-1.065h1.065v1.065H42.393   z M43.458,76.883h-1.065v-1.254h1.065V76.883z M43.986,73.753l0.502,0.452c-0.167,0.002-0.335,0.002-0.502,0.004V73.753z    M43.458,71.263h-1.065v-1.254h1.065V71.263z M42.242,71.263h-1.254v-1.254h1.254V71.263z M40.988,69.858v-1.254h1.254v1.254   H40.988z M40.988,68.453v-1.254h1.254v1.254H40.988z M42.393,67.199h1.065v1.254h-1.065V67.199z M43.458,62.833h-1.065v-1.065   h1.065V62.833z M42.393,61.239v-1.065h1.065v1.065H42.393z M43.458,52.998h-1.065v-1.254h1.065V52.998z M42.242,52.998h-1.254   v-1.254h1.254V52.998z M40.837,52.998h-1.254v-1.254h1.254V52.998z M39.432,52.998h-1.254v-1.254h1.254V52.998z M38.178,51.593   v-1.254h1.254v1.254H38.178z M38.027,51.593h-1.254v-1.254h1.254V51.593z M36.622,51.593h-1.254v-1.254h1.254V51.593z    M35.217,51.593h-1.254v-1.254h1.254V51.593z M35.217,51.744v1.254h-1.254v-1.254H35.217z M33.812,52.998h-1.254v-1.254h1.254   V52.998z M32.407,52.998h-1.254v-1.254h1.254V52.998z M31.002,52.998h-1.065v-1.254h1.065V52.998z M29.936,55.959h1.065v1.254   h-1.065V55.959z M31.153,55.959h1.254v1.254h-1.254V55.959z M32.407,57.364v1.254h-1.254v-1.254H32.407z M32.407,58.769v1.254   h-1.254v-1.254H32.407z M31.002,60.023h-1.065v-1.254h1.065V60.023z M29.408,62.029l-8.335-7.91v-0.995l8.335,7.504V62.029z    M29.408,63.952v1.641l-8.335-9.07v-0.989L29.408,63.952z M21.073,63.201l4.34,11.518c-1.45,0.064-2.899,0.134-4.34,0.209V63.201z    M29.936,87.057h1.065v1.065h-1.065V87.057z M31.153,87.057h1.254v1.065h-1.254V87.057z M32.558,88.274h1.254v1.254h-1.254V88.274z    M33.963,88.274h1.254v1.254h-1.254V88.274z M35.217,89.679v1.222c-0.422-0.153-0.838-0.321-1.254-0.487v-0.736H35.217z    M35.368,89.679h1.254v1.254h-1.254V89.679z M36.773,89.679h1.254v1.254h-1.254V89.679z M38.178,89.679h1.254v1.254h-1.254V89.679z    M39.432,91.084v1.103c-0.421-0.106-0.838-0.224-1.254-0.342v-0.761H39.432z M39.583,92.222v-1.138h1.254v1.254h-0.752   C39.918,92.299,39.749,92.263,39.583,92.222z M40.988,91.084h1.254v1.254h-1.254V91.084z M42.393,91.084h1.065v1.254h-1.065V91.084   z M44.712,74.203l-0.726-0.653v-1.91l2.96,2.547C46.201,74.191,45.456,74.196,44.712,74.203z M42.393,69.858v-1.254h1.065v1.254   H42.393z M43.458,51.593h-1.065v-1.254h1.065V51.593z M42.242,51.593h-1.254v-1.254h1.254V51.593z M40.837,51.593h-1.254v-1.254   h1.254V51.593z M39.583,50.188v-1.065h1.254v1.065H39.583z M39.432,50.188h-1.254v-1.065h1.254V50.188z M38.027,50.188h-1.254   v-1.065h1.254V50.188z M36.622,50.188h-1.254v-1.065h1.254V50.188z M35.217,50.188h-1.254v-1.065h1.254V50.188z M33.812,50.339   v1.254h-1.254v-1.254H33.812z M32.407,51.593h-1.254v-1.254h1.254V51.593z M31.002,51.593h-1.065v-1.254h1.065V51.593z    M31.002,57.364v1.254h-1.065v-1.254H31.002z M29.408,60.425l-8.335-7.504v-0.997l8.335,7.172V60.425z M21.073,79.736h1.847l0,0   c0.018,0,0.036-0.002,0.054-0.006c2.125-0.448,4.287-0.844,6.434-1.186v9.753c-3.009-1.625-5.803-3.597-8.335-5.857V79.736z    M29.936,88.274h1.065v0.841c-0.359-0.175-0.712-0.362-1.065-0.546V88.274z M32.407,89.679v0.082   c-0.06-0.027-0.12-0.055-0.18-0.082H32.407z M32.558,89.679h1.254v0.676c-0.421-0.17-0.84-0.344-1.254-0.526V89.679z    M36.622,91.084v0.294c-0.29-0.094-0.578-0.194-0.866-0.294H36.622z M36.773,91.084h1.254v0.718   c-0.42-0.12-0.839-0.241-1.254-0.374V91.084z M40.837,92.489v0.023c-0.033-0.007-0.066-0.016-0.099-0.023H40.837z M40.988,92.489   h1.254v0.296c-0.419-0.076-0.839-0.15-1.254-0.238V92.489z M42.393,92.489h1.065v0.51c-0.358-0.054-0.71-0.124-1.065-0.187V92.489z    M43.986,77.054c1.291-0.06,2.594-0.1,3.886-0.121v16.504c-1.312-0.064-2.607-0.194-3.886-0.371V77.054z M48.4,93.435v-1.495   l1.053-0.548v1.495L48.4,93.435z M49.453,93.057v0.421c-0.258-0.003-0.514-0.012-0.771-0.02L49.453,93.057z M49.604,91.313   l1.242-0.646v1.495l-1.242,0.646V91.313z M50.997,90.588l1.241-0.646v1.495l-1.241,0.646V90.588z M52.239,91.607v1.495l-0.67,0.349   c-0.19,0.007-0.381,0.01-0.571,0.015v-1.213L52.239,91.607z M52.239,93.273v0.161c-0.108,0.006-0.218,0.004-0.326,0.008   L52.239,93.273z M52.39,93.195l1.242-0.646v0.78c-0.413,0.034-0.825,0.072-1.242,0.095V93.195z M53.782,92.47l1.241-0.646v1.368   c-0.412,0.048-0.826,0.089-1.241,0.125V92.47z M56.417,92.765v0.25c-0.211,0.031-0.424,0.053-0.636,0.081L56.417,92.765z    M56.568,92.686l1.053-0.548v0.671c-0.351,0.062-0.699,0.132-1.053,0.186V92.686z M58.149,91.991h2.563v0.162   c-0.844,0.215-1.7,0.397-2.563,0.561V91.991z M60.863,91.991h0.446c-0.15,0.04-0.296,0.088-0.446,0.127V91.991z M61.839,91.84   h-0.977v-1.515h2.979v0.895C63.181,91.442,62.514,91.649,61.839,91.84z M64.37,90.411l0.386,0.121v0.378   c-0.128,0.046-0.258,0.086-0.386,0.131V90.411z M64.908,90.579l0.386,0.121v0.008c-0.13,0.049-0.256,0.103-0.386,0.151V90.579z    M68.277,89.451v-0.791h1.609C69.355,88.933,68.82,89.198,68.277,89.451z M70.592,78.544c2.148,0.342,4.31,0.738,6.433,1.186   c0.018,0.004,0.036,0.006,0.054,0.006l0,0h1.847v2.705c-2.532,2.26-5.326,4.232-8.335,5.857V78.544z M79.455,56.612h1.465v17.404   h-1.465V56.612z M81.448,79.736h0.247c-0.082,0.087-0.165,0.173-0.247,0.259V79.736z M81.448,75.067V63.089l4.357,11.561   c-0.152,0.22-0.309,0.436-0.465,0.653C84.043,75.22,82.746,75.14,81.448,75.067z M85.91,74.501L81.448,62.66v-0.972l5.684,10.931   C86.741,73.258,86.332,73.884,85.91,74.501z M78.927,51.724l-8.335,7.172v-1.306l8.335-6.867V51.724z M70.064,28.531h-1.787v-1.327   h1.787V28.531z M68.126,28.531h-1.682v-1.327h1.682V28.531z M65.916,28.706l-0.094,0.069v-1.246l0.094-0.069V28.706z M65.294,28.9   l-0.386-0.121v-1.31l0.386,0.121V28.9z M64.757,28.732l-0.386-0.121V27.3l0.386,0.121V28.732z M63.842,28.531h-2.979v-1.327h2.979   V28.531z M60.712,28.531h-2.563v-1.327h2.563V28.531z M57.621,28.659l-1.053,0.548v-1.283l1.053-0.548V28.659z M56.417,28.003   v1.283l-1.242,0.646v-1.283L56.417,28.003z M55.024,28.728v1.283l-1.241,0.646v-1.283L55.024,28.728z M53.631,29.452v1.283   l-1.242,0.646v-1.283L53.631,29.452z M52.239,30.177v1.283l-1.241,0.646v-1.283L52.239,30.177z M50.846,30.902v1.283l-1.242,0.646   v-1.283l0.025-0.013c0.002-0.001,0.004-0.002,0.006-0.003L50.846,30.902z M49.453,31.627v1.283L48.4,33.458v-1.283L49.453,31.627z    M47.872,74.18c-0.232,0.001-0.465,0.004-0.697,0.005l-3.189-2.744V69.6l3.886,3.201V74.18z M43.458,50.188h-1.065v-1.065h1.065   V50.188z M42.242,50.188h-1.254v-1.065h1.254V50.188z M32.407,49.123v1.065h-1.254v-1.065H32.407z M29.408,58.896l-8.335-7.172v-1   l8.335,6.867V58.896z M18.552,61.77v1.003L14.117,74.54c-0.424-0.618-0.834-1.245-1.226-1.885L18.552,61.77z M18.552,75.594v3.614   h-0.749c-0.984-1.084-1.911-2.221-2.784-3.4C16.197,75.734,17.374,75.66,18.552,75.594z M18.552,79.736v0.259   c-0.082-0.086-0.165-0.172-0.247-0.259H18.552z M19.08,80.549v-1.077v-4.928h1.465v4.928v2.491   C20.046,81.503,19.557,81.032,19.08,80.549z M49.604,93.481v-0.503l1.242-0.646v1.138c-0.283,0.005-0.563,0.021-0.846,0.021   C49.867,93.492,49.737,93.483,49.604,93.481z M79.455,81.963v-2.491v-4.928h1.465v4.928v1.077   C80.443,81.031,79.954,81.503,79.455,81.963z M50,6.508c23.982,0,43.492,19.51,43.492,43.491c0,3.277-0.376,6.466-1.066,9.537   l-10.977-9.043v-6.812c0-0.146-0.118-0.264-0.264-0.264h-1.994c-0.146,0-0.264,0.118-0.264,0.264v6.847l-8.335,6.867V26.941   c0-0.146-0.118-0.264-0.264-0.264H66.18c-0.054,0-0.101,0.02-0.143,0.048c-0.004,0.003-0.009,0-0.013,0.003l-0.515,0.376   l-1.325-0.415c-0.012-0.004-0.024-0.002-0.036-0.004c-0.014-0.002-0.027-0.009-0.042-0.009h-6.221c-0.004,0-0.006,0.002-0.01,0.002   c-0.017,0.001-0.034,0.006-0.051,0.01c-0.018,0.004-0.035,0.007-0.051,0.015c-0.003,0.002-0.007,0.001-0.01,0.003l-9.748,5.074   c-0.011,0.006-0.019,0.016-0.029,0.023c-0.015,0.011-0.031,0.021-0.043,0.035c-0.011,0.013-0.019,0.027-0.028,0.041   c-0.009,0.015-0.018,0.028-0.024,0.045c-0.006,0.018-0.008,0.036-0.011,0.054c-0.002,0.012-0.007,0.023-0.007,0.036v40.592   l-3.886-3.201V48.859c0-0.146-0.118-0.264-0.264-0.264h-2.119v-0.606H42.5c0.146,0,0.264-0.118,0.264-0.264v-2.491   c0-0.146-0.118-0.264-0.264-0.264h-2.444v-0.769c0-0.146-0.118-0.264-0.264-0.264h-0.007l-2.823-8.59v-7.552   c0-0.146-0.118-0.264-0.264-0.264s-0.264,0.118-0.264,0.264v7.552l-2.823,8.59h-0.007c-0.146,0-0.264,0.118-0.264,0.264v0.769   h-2.444c-0.146,0-0.264,0.118-0.264,0.264v2.491c0,0.146,0.118,0.264,0.264,0.264h0.896v0.606h-2.119   c-0.146,0-0.264,0.118-0.264,0.264v8.537l-8.335-6.867v-6.847c0-0.146-0.118-0.264-0.264-0.264h-1.994   c-0.146,0-0.264,0.118-0.264,0.264v6.847l-10.97,9.038C6.887,56.486,6.508,53.287,6.508,50C6.508,26.019,26.019,6.508,50,6.508z"></path></g></svg>