<svg xmlns="http://www.w3.org/2000/svg" xmlns:xlink="http://www.w3.org/1999/xlink" version="1.1" x="0px" y="0px" viewBox="0 0 100 100" style="enable-background:new 0 0 100 100;" xml:space="preserve"><g><path d="M33.428,39.482c0.552,0,1,0.447,1,1v1.161c0,0.553-0.448,1-1,1s-1-0.447-1-1v-1.161   C32.428,39.929,32.876,39.482,33.428,39.482z"></path><path d="M28.595,39.482c0.552,0,1,0.447,1,1v1.161c0,0.553-0.448,1-1,1s-1-0.447-1-1v-1.161   C27.595,39.929,28.043,39.482,28.595,39.482z"></path><path d="M33.428,44.231c0.552,0,1,0.447,1,1v1.162c0,0.553-0.448,1-1,1s-1-0.447-1-1v-1.162   C32.428,44.678,32.876,44.231,33.428,44.231z"></path><path d="M28.595,44.231c0.552,0,1,0.447,1,1v1.162c0,0.553-0.448,1-1,1s-1-0.447-1-1v-1.162   C27.595,44.678,28.043,44.231,28.595,44.231z"></path><path d="M33.428,48.982c0.552,0,1,0.447,1,1v1.161c0,0.553-0.448,1-1,1s-1-0.447-1-1v-1.161   C32.428,49.429,32.876,48.982,33.428,48.982z"></path><path d="M28.595,48.982c0.552,0,1,0.447,1,1v1.161c0,0.553-0.448,1-1,1s-1-0.447-1-1v-1.161   C27.595,49.429,28.043,48.982,28.595,48.982z"></path><path d="M33.428,53.837c0.552,0,1,0.447,1,1v1.162c0,0.553-0.448,1-1,1s-1-0.447-1-1v-1.162   C32.428,54.284,32.876,53.837,33.428,53.837z"></path><path d="M28.595,53.837c0.552,0,1,0.447,1,1v1.162c0,0.553-0.448,1-1,1s-1-0.447-1-1v-1.162   C27.595,54.284,28.043,53.837,28.595,53.837z"></path><path d="M33.428,58.588c0.552,0,1,0.447,1,1v1.161c0,0.553-0.448,1-1,1s-1-0.447-1-1v-1.161   C32.428,59.035,32.876,58.588,33.428,58.588z"></path><path d="M28.595,58.588c0.552,0,1,0.447,1,1v1.161c0,0.553-0.448,1-1,1s-1-0.447-1-1v-1.161   C27.595,59.035,28.043,58.588,28.595,58.588z"></path><path d="M54.564,46.573c-0.552,0-1-0.447-1-1v-2.114c0-0.553,0.448-1,1-1s1,0.447,1,1v2.114   C55.564,46.126,55.116,46.573,54.564,46.573z"></path><path d="M50.359,46.573c-0.552,0-1-0.447-1-1v-2.114c0-0.553,0.448-1,1-1s1,0.447,1,1v2.114   C51.359,46.126,50.911,46.573,50.359,46.573z"></path><path d="M46.155,46.573c-0.552,0-1-0.447-1-1v-2.114c0-0.553,0.448-1,1-1s1,0.447,1,1v2.114   C47.155,46.126,46.707,46.573,46.155,46.573z"></path><path d="M54.564,55.218c-0.552,0-1-0.447-1-1v-2.113c0-0.553,0.448-1,1-1s1,0.447,1,1v2.113   C55.564,54.771,55.116,55.218,54.564,55.218z"></path><path d="M50.359,55.218c-0.552,0-1-0.447-1-1v-2.113c0-0.553,0.448-1,1-1s1,0.447,1,1v2.113   C51.359,54.771,50.911,55.218,50.359,55.218z"></path><path d="M46.155,55.218c-0.552,0-1-0.447-1-1v-2.113c0-0.553,0.448-1,1-1s1,0.447,1,1v2.113   C47.155,54.771,46.707,55.218,46.155,55.218z"></path><path d="M54.564,63.863c-0.552,0-1-0.447-1-1v-2.114c0-0.553,0.448-1,1-1s1,0.447,1,1v2.114   C55.564,63.416,55.116,63.863,54.564,63.863z"></path><path d="M50.359,63.863c-0.552,0-1-0.447-1-1v-2.114c0-0.553,0.448-1,1-1s1,0.447,1,1v2.114   C51.359,63.416,50.911,63.863,50.359,63.863z"></path><path d="M46.155,63.863c-0.552,0-1-0.447-1-1v-2.114c0-0.553,0.448-1,1-1s1,0.447,1,1v2.114   C47.155,63.416,46.707,63.863,46.155,63.863z"></path><path d="M54.564,72.508c-0.552,0-1-0.447-1-1v-2.113c0-0.553,0.448-1,1-1s1,0.447,1,1v2.113   C55.564,72.061,55.116,72.508,54.564,72.508z"></path><path d="M50.359,72.508c-0.552,0-1-0.447-1-1v-2.113c0-0.553,0.448-1,1-1s1,0.447,1,1v2.113   C51.359,72.061,50.911,72.508,50.359,72.508z"></path><path d="M46.155,72.508c-0.552,0-1-0.447-1-1v-2.113c0-0.553,0.448-1,1-1s1,0.447,1,1v2.113   C47.155,72.061,46.707,72.508,46.155,72.508z"></path><path d="M54.564,81.153c-0.552,0-1-0.447-1-1v-2.114c0-0.553,0.448-1,1-1s1,0.447,1,1v2.114   C55.564,80.706,55.116,81.153,54.564,81.153z"></path><path d="M50.359,81.153c-0.552,0-1-0.447-1-1v-2.114c0-0.553,0.448-1,1-1s1,0.447,1,1v2.114   C51.359,80.706,50.911,81.153,50.359,81.153z"></path><path d="M46.155,81.153c-0.552,0-1-0.447-1-1v-2.114c0-0.553,0.448-1,1-1s1,0.447,1,1v2.114   C47.155,80.706,46.707,81.153,46.155,81.153z"></path><path d="M9.859,88.072c0,0.553,0.448,1,1,1h79c0.552,0,1-0.447,1-1s-0.448-1-1-1h-4.736v-2.734   c1.673-0.482,2.908-2.009,2.908-3.836c0-1.316-0.646-2.476-1.629-3.207c0.601-0.606,0.974-1.44,0.974-2.359   c0-1.85-1.504-3.354-3.354-3.354c-1.85,0-3.354,1.504-3.354,3.354c0,0.92,0.373,1.753,0.974,2.359   c-0.983,0.731-1.629,1.891-1.629,3.207c0,1.901,1.332,3.488,3.109,3.898v2.672h-5.479V58.352c0-0.553-0.448-1-1-1h-3.708V31.106   c0-0.553-0.448-1-1-1h-2.576c-0.171-1.957-1.349-3.605-2.696-4.41c-0.13-2.165-1.546-4.134-3.055-4.134H62.56v-5.804   c0-0.553-0.448-1-1-1s-1,0.447-1,1v5.804h-1.05c-1.51,0-2.925,1.969-3.055,4.134c-1.347,0.805-2.524,2.453-2.695,4.41h-3.4   c-0.552,0-1,0.447-1,1v4.543h-8.613c-0.552,0-1,0.447-1,1v27.753h-1.589V35.801c0-0.553-0.448-1-1-1h-12.29c-0.552,0-1,0.447-1,1   v28.601h-2.089c-0.552,0-1,0.447-1,1v21.671h-4.931V84.44c1.634-0.479,2.838-1.974,2.838-3.761c0-1.284-0.627-2.415-1.581-3.134   c0.581-0.595,0.942-1.405,0.942-2.3c0-1.818-1.479-3.298-3.298-3.298s-3.297,1.479-3.297,3.298c0,0.895,0.361,1.706,0.942,2.3   c-0.954,0.719-1.581,1.85-1.581,3.134c0,1.859,1.299,3.412,3.035,3.822v2.571h-2.988C10.307,87.072,9.859,87.52,9.859,88.072z    M85.376,74.936c0,0.746-0.607,1.354-1.354,1.354c-0.747,0-1.354-0.607-1.354-1.354s0.607-1.354,1.354-1.354   C84.769,73.582,85.376,74.19,85.376,74.936z M84.023,82.511c-1.107,0-2.009-0.901-2.009-2.009s0.901-2.008,2.009-2.008   s2.008,0.9,2.008,2.008S85.13,82.511,84.023,82.511z M64.582,25.164h-6.044c0.233-0.936,0.787-1.545,1.012-1.606l4.06,0.004   C63.804,23.62,64.351,24.229,64.582,25.164z M67.336,30.106H55.784c0.239-1.699,1.645-2.941,2.388-2.941h6.776   C65.691,27.164,67.097,28.407,67.336,30.106z M60.313,82.901h15.332v4.171H60.313V82.901z M60.313,76.805h15.332v4.097H60.313   V76.805z M60.313,70.709h15.332v4.096H60.313V70.709z M60.313,64.901h15.332v3.808H60.313V64.901z M60.313,59.352h15.332v3.55   H60.313V59.352z M59.313,35.649h-7.954v-3.543h19.578v25.246H60.313V36.649C60.313,36.096,59.865,35.649,59.313,35.649z    M41.746,37.649h16.567v20.703v28.721H41.746V37.649z M36.156,64.401h-10.29V36.801h10.29V64.401z M27.699,78.464   c0-2.114,1.676-3.834,3.736-3.834s3.736,1.72,3.736,3.834v8.608h-7.473V78.464z M22.778,66.401h16.968v20.671h-2.574v-8.608   c0-3.217-2.573-5.834-5.736-5.834s-5.736,2.617-5.736,5.834v8.608h-2.922V66.401z M16.047,75.244c0,0.716-0.582,1.298-1.298,1.298   c-0.715,0-1.297-0.582-1.297-1.298s0.582-1.298,1.297-1.298C15.465,73.946,16.047,74.528,16.047,75.244z M14.749,82.615   c-1.068,0-1.937-0.869-1.937-1.937s0.869-1.937,1.937-1.937s1.937,0.869,1.937,1.937S15.817,82.615,14.749,82.615z"></path><path d="M63.164,35.619h4.815c0.552,0,1,0.447,1,1s-0.448,1-1,1h-4.815c-0.552,0-1-0.447-1-1S62.612,35.619,63.164,35.619z"></path><path d="M63.164,39.998h4.815c0.552,0,1,0.447,1,1s-0.448,1-1,1h-4.815c-0.552,0-1-0.447-1-1S62.612,39.998,63.164,39.998z"></path><path d="M63.164,44.377h4.815c0.552,0,1,0.447,1,1s-0.448,1-1,1h-4.815c-0.552,0-1-0.447-1-1S62.612,44.377,63.164,44.377z"></path><path d="M63.164,48.756h4.815c0.552,0,1,0.447,1,1s-0.448,1-1,1h-4.815c-0.552,0-1-0.447-1-1S62.612,48.756,63.164,48.756z"></path><path d="M63.164,53.136h4.815c0.552,0,1,0.447,1,1s-0.448,1-1,1h-4.815c-0.552,0-1-0.447-1-1S62.612,53.136,63.164,53.136z"></path></g></svg>