<?xml version="1.0" encoding="utf-8"?>
<!-- Generator: Adobe Illustrator 19.2.1, SVG Export Plug-In . SVG Version: 6.00 Build 0)  -->
<svg version="1.1" id="Layer_1" xmlns="http://www.w3.org/2000/svg" xmlns:xlink="http://www.w3.org/1999/xlink" x="0px" y="0px"
	 viewBox="0 0 93.7 89" style="enable-background:new 0 0 93.7 89;" xml:space="preserve">
<path d="M25.2,50.7C25.2,50.6,25.2,50.6,25.2,50.7c-4.3-4.2-7-10-7-16.4c0-12,9.4-21.8,21.2-22.5c-0.6,0-1.2-0.1-1.8-0.1
	c-12.4,0-22.5,10.1-22.5,22.5c0,6.4,2.7,12.2,7,16.3v0.1l-0.8,25.2c0,0.6,0.4,1.1,1,1.1L44.4,77c0,0,0,0,0.1,0l-20.2-0.1L25.2,50.7z
	"/>
<path d="M67.1,38.9v-0.7L61.4,37l0,0c-0.6-0.2-1.1-0.7-1.1-1.4s0.5-1.2,1.1-1.4l0,0l5.4-1.6c-0.5-2.8-1.5-5.7-3-8.6
	c-0.1-0.2-0.2-0.4-0.3-0.6c0-0.1-0.1-0.1-0.1-0.2l0,0c-3.9-6.9-11.3-11.5-19.7-11.5c-12.4,0-22.5,10.1-22.5,22.5
	c0,6.4,2.7,12.2,7,16.3v0.1l-0.8,25.2c0,0.6,0.4,1.1,1,1.1L50.5,77c0.6,0,1-0.5,1-1V65.8c0-0.6,0.5-1.1,1.1-1.2l9.4-1.1
	c2.5-0.3,4.5-2.3,4.7-4.8l0.1-0.8c0-0.1,0-0.2,0-0.3l0.1-8l3.1-0.8c1.2-0.3,1.8-1.7,1.2-2.8L67.1,38.9z"/>
<path d="M85.6,26.9l-18.7,5.6l0,0c0,0,0.2,1,0.3,3.1c0.1,1.3,0.1,2.6,0.1,2.6l18.4,4.1c0,0,1.2-2.4,1.3-7.7
	C86.8,29.6,85.6,26.9,85.6,26.9z"/>
</svg>
